<svg width="16" height="16" viewBox="0 0 16 16" fill="none" xmlns="http://www.w3.org/2000/svg">
<path d="M3.3235 1.68919C3.32852 1.30775 3.48481 0.939992 3.75803 0.666775C4.03124 0.393557 4.399 0.237256 4.78043 0.232245L13.9347 0.113335C14.3162 0.108439 14.68 0.255236 14.9462 0.521446C15.2124 0.787657 15.3592 1.15148 15.3543 1.53292L15.2354 10.6873C15.2239 11.0646 15.0648 11.426 14.7924 11.6939C14.52 11.9618 14.1559 12.1146 13.7788 12.1195C13.4016 12.1244 13.0414 11.981 12.7759 11.7201C12.5103 11.4592 12.3605 11.1017 12.3589 10.7247L12.3441 5.13147L2.5557 14.92C2.28243 15.1933 1.91459 15.3496 1.53308 15.3545C1.15158 15.3595 0.787672 15.2127 0.521412 14.9464C0.255153 14.6802 0.108354 14.3162 0.11331 13.9347C0.118265 13.5532 0.274569 13.1854 0.547836 12.9121L10.3362 3.12358L4.74306 3.10877C4.36164 3.11367 3.99782 2.96687 3.73161 2.70066C3.4654 2.43445 3.31861 2.07062 3.3235 1.68919Z" fill="#222C3C"/>
</svg>
