<svg width="16" height="16" viewBox="0 0 16 16" fill="none" xmlns="http://www.w3.org/2000/svg">
<path d="M8 9.70306L2.03802 15.6648C1.81496 15.8879 1.53105 15.9994 1.18631 15.9994C0.841571 15.9994 0.557667 15.8879 0.3346 15.6648C0.111533 15.4418 0 15.1579 0 14.8131C0 14.4684 0.111533 14.1845 0.3346 13.9615L6.29658 7.9997L0.3346 2.03795C0.111533 1.81489 0 1.53099 0 1.18627C0 0.84154 0.111533 0.557647 0.3346 0.334588C0.557667 0.111529 0.841571 0 1.18631 0C1.53105 0 1.81496 0.111529 2.03802 0.334588L8 6.29634L13.962 0.334588C14.185 0.111529 14.4689 0 14.8137 0C15.1584 0 15.4423 0.111529 15.6654 0.334588C15.8885 0.557647 16 0.84154 16 1.18627C16 1.53099 15.8885 1.81489 15.6654 2.03795L9.70342 7.9997L15.6654 13.9615C15.8885 14.1845 16 14.4684 16 14.8131C16 15.1579 15.8885 15.4418 15.6654 15.6648C15.4423 15.8879 15.1584 15.9994 14.8137 15.9994C14.4689 15.9994 14.185 15.8879 13.962 15.6648L8 9.70306Z" fill="white" fill-opacity="0.5"/>
</svg>
