<svg fill="none" height="27" viewBox="0 0 39 27" width="39" xmlns="http://www.w3.org/2000/svg"><g fill="#6c86ad"><path d="m5.3273 5.7699c-.01089 3.38247.03333 6.8562 1.3762 10.019 1.22383 2.8825 3.4392 5.2055 6.489 6.1141 1.5787.4703 3.266.5732 4.9046.5985 1.6543.0256 3.3465-.0387 4.9549-.4596 3.0072-.7868 5.3499-2.9986 6.6379-5.79 1.6191-3.5091 1.6084-7.3777 1.5-11.16443-.027-.94483-1.0235-1.95567-2.038-1.55249-6.8535 2.72378-14.4752 2.66699-21.29104-.14759-.80405-.33202-1.77023.35929-1.98049 1.12449-.25416.92497.31741 1.64722 1.12448 1.9805 7.26435 2.99976 15.70015 3.04997 23.00305.14758l-2.038-1.55249c.1303 4.55565.2982 11.39603-4.8029 13.53613-1.2046.5054-2.532.627-3.8236.656-1.345.0303-2.7361.0316-4.0649-.1962-2.4963-.4278-4.2688-1.8068-5.4019-4.0562-1.42459-2.8279-1.33922-6.17456-1.32929-9.2573.00667-2.07218-3.21333-2.07504-3.22001 0z"/><path d="m31.0416 10.6331c-.2638.2129.2074-.1092.2634-.1439.1682-.0804.1698-.0843.0048-.0115.0666-.0254.134-.048.2024-.0677.0766-.0234.5701-.1173.1982-.0718.1646-.0201.3315-.0233.497-.0168.0711.0017.142.0066.2127.0145-.1908-.0255-.1955-.0209-.0139.0136.0733.0257.5886.2309.2539.0641.1217.0607.236.1352.3568.1963.1496.1043.1514.0994.0053-.0146.0704.057.1385.1168.2042.1792.0984.0934.1913.1929.2778.2975-.2316-.2802.0866.1733.1238.2381.198.345-.0488-.247.0542.1341.0197.0727.1381.647.0882.2554.0177.1391.0237.2805.0243.4206.0003.0797-.068.6533-.0009.2763-.025.1403-.0541.2795-.0912.4171-.0171.0637-.2174.6109-.0767.287-.1315.3028-.3053.5911-.5015.8561.2021-.273-.1067.1095-.1544.1602-.1125.1199-.2299.2348-.3522.3447-.07.0628-.1414.124-.2143.1836.1412-.1054.1375-.1033-.0112.0062-.1175.0797-.2332.1614-.3536.2371-.2825.1776-.5773.3274-.8762.4744-.1706.0759-.1729.0786-.0069.0081-.0876.0357-.1758.07-.2645.1029-.1592.0591-.3201.114-.4818.1656-.3773.1203-.7611.2198-1.1475.3063-.8309.1859-1.6744.3074-2.5165.4291-.8365.1208-1.369 1.225-1.1245 1.9805.2962.9153 1.084 1.2539 1.9805 1.1244 3.1075-.4488 6.287-1.1801 8.2609-3.8417 1.8834-2.5397 1.4256-6.6233-1.6388-8.03269-1.876-.86285-3.8695-.53221-5.4587.75077-.6582.53138-.5943 1.73132 0 2.27692.6989.6416 1.5747.5668 2.2769 0z"/><path d="m8.44537 5.74551c2.05373-2.9887 6.91353-2.5277 10.04433-2.52584 3.5511.00211 7.4213.42425 9.9163 3.23992 1.3771 1.55409 3.6475-.73011 2.2769-2.27688-3.1339-3.536649-8.0339-4.2018493-12.5027-4.18229745-4.4889.01963555-9.69241.01192665-12.5152 4.11990745-.49267.71697-.13404 1.78655.57759 2.20278.79792.46671 1.70898.14105 2.20278-.57759z"/><path d="m8.2963 15.8252c-2.32986-.2804-4.79776-.3318-6.67352 1.3012-1.61825221 1.4088-2.191998 3.7944-.953277 5.6438 1.040867 1.5539 2.906587 2.2917 4.657727 2.7088 2.39276.57 4.83987.9476 7.28477 1.2064 4.7647.5043 9.5621.3912 14.3066-.2583 2.267-.3103 4.6027-.6764 6.7919-1.3604 1.8808-.5877 3.774-1.6146 4.5257-3.5451.8716-2.2384-.3654-4.5514-2.2701-5.7775-2.3545-1.5156-5.2935-.9112-7.8221-.2613-2.0055.5154-1.1555 3.6219.856 3.1049 1.5093-.3879 3.4347-1.0007 4.9417-.2922.8711.4096 1.7659 1.4103 1.1602 2.3452-.5861.9046-1.9895 1.2741-2.9931 1.5296-1.7921.4562-3.6178.8011-5.4472 1.0676-3.7432.5454-7.5626.6711-11.3368.4503-1.8695-.1094-3.7334-.3064-5.58135-.6108-1.63303-.269-3.37103-.5094-4.92447-1.1036-.91194-.3488-2.13512-1.0691-1.36173-2.1242 1.04647-1.4276 3.34981-.9837 4.83905-.8044.86471.104 1.61-.8145 1.61-1.61 0-.9567-.74276-1.5057-1.61-1.61z"/></g></svg>