<svg width="12" height="12" viewBox="0 0 12 12" fill="none" xmlns="http://www.w3.org/2000/svg">
<path d="M7.33333 0C7.33333 0.73638 7.93029 1.33333 8.66667 1.33333H9.72667L3.64333 7.41667C3.38376 7.67624 3.38376 8.09709 3.64333 8.35667C3.90291 8.61624 4.32376 8.61624 4.58333 8.35667L10.6667 2.27333V4C10.6667 4.36819 10.9651 4.66667 11.3333 4.66667C11.7015 4.66667 12 4.36819 12 4V0M10.6667 10.6667H1.33333V1.33333H5.33333C5.70152 1.33333 6 1.03486 6 0.666667C6 0.298477 5.70152 0 5.33333 0H1.33333C0.979711 0 0.640573 0.140476 0.390524 0.390524C0.140476 0.640573 0 0.979711 0 1.33333V10.6667C0 11.0203 0.140476 11.3594 0.390524 11.6095C0.640573 11.8595 0.979711 12 1.33333 12H10.6667C11.0203 12 11.3594 11.8595 11.6095 11.6095C11.8595 11.3594 12 11.0203 12 10.6667V6.66667C12 6.29848 11.7015 6 11.3333 6C10.9651 6 10.6667 6.29848 10.6667 6.66667V10.6667Z" fill="#6C86AD"/>
</svg>
