<svg width="7" height="12" viewBox="0 0 7 12" fill="none" xmlns="http://www.w3.org/2000/svg">
<path d="M6.5635 6.41241C6.5635 6.54575 6.54283 6.67075 6.5015 6.78741C6.46017 6.90408 6.38917 7.01241 6.2885 7.11241L1.6635 11.7374C1.48017 11.9207 1.25084 12.0081 0.975502 11.9994C0.700169 11.9907 0.471169 11.8951 0.288502 11.7124C0.105169 11.5291 0.0135013 11.2957 0.0135013 11.0124C0.0135013 10.7291 0.105169 10.4957 0.288502 10.3124L4.1885 6.41241L0.263501 2.48741C0.0801679 2.30408 -0.00749826 2.07475 0.000501745 1.79941C0.00850174 1.52408 0.104502 1.29508 0.288502 1.11241C0.471835 0.929081 0.705168 0.837413 0.988502 0.837413C1.27183 0.837413 1.50517 0.929081 1.6885 1.11241L6.2885 5.71241C6.3885 5.81241 6.4595 5.92075 6.5015 6.03741C6.5435 6.15408 6.56417 6.27908 6.5635 6.41241Z" fill="#6C86AD"/>
</svg>
