<svg fill="none" height="30" viewBox="0 0 164 30" width="164" xmlns="http://www.w3.org/2000/svg" xmlns:xlink="http://www.w3.org/1999/xlink"><linearGradient id="a" gradientUnits="userSpaceOnUse" x1="6" x2="14.6667" y1="6" y2="23.1683"><stop offset="0" stop-color="#01f1b3"/><stop offset="1" stop-color="#00d6f3"/></linearGradient><path d="m.5 4c0-1.933 1.567-3.5 3.5-3.5h22c1.933 0 3.5 1.567 3.5 3.5v22c0 1.933-1.567 3.5-3.5 3.5h-22c-1.933 0-3.5-1.567-3.5-3.5z" fill="#222c3c" stroke="#222c3c"/><path d="m15.8155 18.7367c1.3017.0821 2.5205.3323 3.6563.7505.6035.3056 1.207.5215 1.8106.6477l-.5143 2.6456c-.0247.1273-.1387.2195-.2715.2195h-3.2892c-.0612 0-.1152-.0394-.1325-.0967zm-1.6064-.0172-1.2599 4.1836c-.0173.0575-.0712.0969-.1325.0969h-3.28941c-.13261 0-.24653-.092-.27142-.2192l-.51907-2.653c.52674-.1271 1.02178-.3406 1.4851-.6406 1.2315-.4535 2.5606-.7094 3.9872-.7677zm-4.84858-12.7195c.06782 0 .12562.04807.13641.11346l1.59237 9.65034c-.3011.1761-.5902.3764-.8674.601-.67237.404-1.36468.6511-2.07692.7415l-2.14252-10.94605c-.00164-.00835-.00246-.01683-.00246-.02533 0-.07451.06186-.13492.13817-.13492zm14.50128 0c.0086 0 .0173.00079.0258.00236.0749.0139.1242.0845.11.15771l-2.1256 10.93863c-.7267-.0962-1.5268-.3408-2.4002-.7339-.1863-.1509-.3779-.2908-.5749-.4198l1.6222-9.83154c.0108-.06539.0686-.11346.1364-.11346zm-7.9809 3.76968c.1212 0 .2282.07702.264.19l1.7234 5.43202c-.9104-.3921-1.9175-.5881-3.0215-.5881-.9581 0-1.8434.1477-2.6557.4431l1.672-5.28679c.0358-.11309.1428-.19023.2641-.19023z" fill="url(#a)"/><path d="m44.0506 27.4001c2.5503 0 4.3394-.622 5.3674-1.866 1.0279-1.244 1.5419-2.964 1.5419-5.1598 0-1.089-.1741-2.0121-.5224-2.7691-.3483-.7571-.8089-1.4211-1.3819-1.9922-.5729-.5711-1.2021-1.1134-1.8874-1.627l-3.4209-2.5898c-.6628-.4958-1.1066-.9341-1.3313-1.3149-.2247-.38068-.337-.73485-.337-1.06245 0-.32761.1095-.59545.3286-.80352s.5645-.31211 1.0364-.31211c.3932 0 .7049.08854.9353.26563.2303.17708.2149.41698.2149.73573v1.48772h6.3657c0-2.32862-.7724-3.93673-1.9127-5.07892s-3.0698-1.71328-5.7886-1.71328c-2.2244 0-3.9237.52239-5.0977 1.56719-1.174 1.04479-1.761 2.56328-1.761 4.55546 0 1.90365.9943 3.59475 2.9828 5.07345l2.6626 1.9922c.7864.5844 1.4015 1.0957 1.8453 1.534.4437.4382.7555.8987.9352 1.3812.1798.4826.2697 1.0824.2697 1.7996 0 .5667-.104.974-.3118 1.2219s-.5814.3719-1.1206.3719c-.5168 0-.8792-.1528-1.087-.4582-.2078-.3055-.7159-.7283-.7159-1.2684v-2.4674h-5.4603v1.8299c0 2.3198.5982 4.0109 1.7947 5.0734s3.1485 1.5938 5.856 1.5938zm15.4226 0c.7423 0 2.0523-.2862 2.3296-.3722.2773-.0859 1.0746-.4329 1.1477-.452v-3.4179c-.1596.4029-.6548.5161-.9289.5161-.3883 0-.7748-.4193-.7748-.7499v-11.6746h1.7037v-3.38802h-1.7037v-4.26148h-6.0012v4.26148h-1.7163v3.38802h1.7163v12.8003c0 1.1346.3021 1.9766.8788 2.526.5767.5495 1.693.8242 3.3488.8242zm12.7724-.0188c.8464 0 1.5994-.2217 2.259-.6652.6596-.4434 1.5464-1.0632 1.8322-1.8969v2.5809l5.456-.0188v-15.4189c0-1.0821-.305-1.99115-.9151-2.72728-.6101-.73614-1.4373-1.29268-2.4816-1.66962-1.0444-.37693-2.2261-.5654-3.5452-.5654-2.5174 0-4.3559.41463-5.5157 1.24389-1.1597.82926-1.7396 2.23721-1.7396 4.22391v.3792c0 .1108.0055.2017.0165.2727h5.7383v-1.1973c0-.8692.3957-1.3038 1.1872-1.3038.8684 0 1.3026.5366 1.3026 1.6097v2.0488l-3.6606 1.0111c-1.2642.3459-2.2563.7672-2.9763 1.2638-.72.4967-1.2284 1.1331-1.5252 1.9091-.2969.7761-.4453 1.7716-.4453 2.9867 0 1.1352.132 2.1508.3958 3.0465.2638.8958.7557 1.6009 1.4758 2.1153.72.5144 1.7671.7716 3.1412.7716zm2.3002-4.2312c-.8784 0-1.3177-.4931-1.3177-1.4792v-2.1464c0-.6525.2251-1.1474.6753-1.4847.4502-.3374 1.0816-.6173 1.8942-.8397v4.6488c0 .3188-.0879.6154-.2636.8897s-.5051.4115-.9882.4115zm18.3724 4.25v-11.0518h5.1476v-4.2465h-5.1476v-3.40352h5.1476v-5.09818h-11.9906v23.8zm16.2818-19.55v-4.25h-5.995v4.25zm0 19.55v-17h-5.995v17z" fill="#222c3c"/><path d="m120.25 4c0-2.07107 1.679-3.75 3.75-3.75h36c2.071 0 3.75 1.67893 3.75 3.75v10c0 2.0711-1.679 3.75-3.75 3.75h-36c-2.071 0-3.75-1.6789-3.75-3.75z" stroke="#222c3c" stroke-width=".5"/><path d="m130.346 11.834v1.166h-4.283v-1.166zm-3.873-7.36525v8.53125h-1.471v-8.53125zm10.221 7.36525v1.166h-4.283v-1.166zm-3.873-7.36525v8.53125h-1.47v-8.53125zm8.318 1.13672-2.549 7.39453h-1.541l3.211-8.53125h.984zm2.132 7.39453-2.554-7.39453-.112-1.13672h.991l3.222 8.53125zm-.123-3.16406v1.16606h-4.64v-1.16606zm5.816-4.23047-2.549 7.39453h-1.541l3.211-8.53125h.984zm2.133 7.39453-2.555-7.39453-.111-1.13672h.99l3.222 8.53125zm-.124-3.16406v1.16606h-4.64v-1.16606zm6.982.96676c0-.1757-.028-.332-.082-.4687-.051-.1367-.143-.2617-.276-.37502-.132-.11328-.32-.22265-.562-.32812-.238-.10938-.543-.2207-.914-.33398-.406-.125-.781-.26368-1.125-.41602-.34-.15625-.637-.33594-.891-.53906-.254-.20703-.451-.44336-.592-.70899-.14-.26953-.211-.58008-.211-.93164 0-.34765.073-.66406.217-.94922.149-.28515.358-.53125.627-.73828.274-.21094.596-.37305.967-.48633.371-.11718.781-.17578 1.23-.17578.633 0 1.178.11719 1.635.35156.461.23438.815.54883 1.061.94336.25.39454.375.83008.375 1.30664h-1.459c0-.28124-.061-.52929-.182-.74414-.117-.21875-.297-.39062-.539-.51562-.238-.125-.541-.1875-.908-.1875-.348 0-.637.05273-.867.1582-.231.10547-.403.24805-.516.42774-.113.17968-.17.38281-.17.60937 0 .16016.037.30664.111.43945.075.12891.188.25.34.36329.153.10937.344.21289.575.31054.23.09766.501.19141.814.28125.473.14063.885.29688 1.236.46875.352.16797.645.35938.879.57422.235.21485.41.45899.528.73242.117.26951.175.57621.175.91991 0 .3594-.072.6836-.216.9727-.145.2851-.352.5293-.622.7324-.265.1992-.586.3535-.961.4629-.371.1055-.785.1582-1.242.1582-.41 0-.814-.0547-1.213-.1641-.394-.1093-.753-.2754-1.078-.498-.324-.2266-.582-.5078-.773-.8438-.192-.3398-.287-.7363-.287-1.1894h1.47c0 .2773.047.5136.141.709.098.1953.232.3554.404.4804.172.1211.371.211.598.2696.23.0586.477.0879.738.0879.344 0 .631-.0489.862-.1465.234-.0977.41-.2344.527-.4102s.176-.3789.176-.6094z" fill="#222c3c"/></svg>