<svg width="350" height="116" viewBox="0 0 350 116" fill="none" xmlns="http://www.w3.org/2000/svg">
<path d="M-10 0H356V116H-10V0Z" fill="#80CAFF"/>
<mask id="mask0_2_48656" style="mask-type:alpha" maskUnits="userSpaceOnUse" x="-10" y="0" width="366" height="116">
<path d="M-10 0H356V116H-10V0Z" fill="#80CAFF"/>
</mask>
<g mask="url(#mask0_2_48656)">
<path d="M186.12 153.14C348.006 153.14 479.24 141.916 479.24 128.07C479.24 114.224 348.006 103 186.12 103C24.2343 103 -107 114.224 -107 128.07C-107 141.916 24.2343 153.14 186.12 153.14Z" fill="white"/>
<path d="M277.15 53.6699C277.184 53.9016 277.148 54.1381 277.047 54.3493C276.946 54.5605 276.785 54.7369 276.583 54.856C276.381 54.9751 276.149 55.0315 275.915 55.0181C275.681 55.0046 275.457 54.922 275.27 54.7806C275.084 54.6392 274.943 54.4454 274.867 54.2241C274.791 54.0027 274.782 53.7636 274.842 53.5373C274.902 53.311 275.028 53.1076 275.204 52.9532C275.38 52.7987 275.598 52.7001 275.83 52.6699C276.137 52.6325 276.447 52.716 276.693 52.9026C276.939 53.0892 277.103 53.3644 277.15 53.6699Z" fill="#80CAFF"/>
<path d="M106.43 35.6097C106.463 35.8414 106.428 36.078 106.326 36.2892C106.225 36.5004 106.064 36.6767 105.862 36.7958C105.661 36.9149 105.428 36.9714 105.194 36.9579C104.961 36.9445 104.736 36.8618 104.549 36.7204C104.363 36.579 104.222 36.3853 104.146 36.1639C104.07 35.9425 104.061 35.7035 104.122 35.4772C104.182 35.2508 104.308 35.0475 104.484 34.893C104.66 34.7386 104.877 34.64 105.11 34.6097C105.262 34.5886 105.417 34.5977 105.566 34.6365C105.715 34.6754 105.854 34.7431 105.977 34.836C106.1 34.9289 106.203 35.0451 106.28 35.1778C106.358 35.3106 106.409 35.4574 106.43 35.6097Z" fill="#80CAFF"/>
<path d="M243.98 107.32C244.014 107.552 243.978 107.788 243.877 107.999C243.776 108.211 243.615 108.387 243.413 108.506C243.211 108.625 242.979 108.682 242.745 108.668C242.511 108.655 242.287 108.572 242.1 108.431C241.914 108.289 241.773 108.096 241.697 107.874C241.621 107.653 241.612 107.414 241.672 107.187C241.732 106.961 241.858 106.758 242.034 106.603C242.21 106.449 242.428 106.35 242.66 106.32C242.968 106.28 243.278 106.362 243.525 106.549C243.772 106.737 243.936 107.013 243.98 107.32Z" fill="#FEA4FF" fill-opacity="0.5"/>
<path d="M120.659 17.8898L123.999 16.7798C123.999 16.7798 121.719 15.5998 121.719 11.9498C121.719 8.2998 124.849 6.8598 123.499 3.5498L119.779 4.5498C120.196 5.41827 120.426 6.36417 120.455 7.32683C120.484 8.28949 120.312 9.24764 119.949 10.1398C118.959 12.2498 118.069 14.7398 120.659 17.8898Z" fill="white"/>
<path d="M83.25 35.8201L79.95 34.5801C79.95 34.5801 80.95 36.9301 78.67 39.7601C76.39 42.5901 73.04 41.7601 72 45.1601L75.52 46.7401C75.7429 45.8001 76.1607 44.9174 76.7464 44.1491C77.3321 43.3808 78.0726 42.744 78.92 42.2801C81.01 41.2701 83.27 39.9001 83.25 35.8201Z" fill="#FFC727"/>
<path d="M275.2 66.6199L271.9 65.3799C271.9 65.3799 272.9 67.7299 270.62 70.5599C268.34 73.3899 264.99 72.5599 263.95 75.9599L267.47 77.5299C267.693 76.5926 268.11 75.7124 268.694 74.9459C269.278 74.1795 270.016 73.5438 270.86 73.0799C272.96 72.0699 275.22 70.6999 275.2 66.6199Z" fill="#DC1FFF"/>
<path d="M93.9106 84.0299L94.3905 80.5499C94.3905 80.5499 92.3305 82.0699 89.0605 80.4499C85.7905 78.8299 85.8806 75.3899 82.3206 75.1299L81.5605 78.9099C82.5247 78.9211 83.4757 79.1342 84.3524 79.5355C85.2291 79.9368 86.012 80.5174 86.6505 81.2399C88.1105 83.0499 89.9506 84.9599 93.9106 84.0299Z" fill="#80CAFF"/>
<path d="M94 101.179L94.67 104.639C94.67 104.639 96.13 102.529 99.75 103.019C103.37 103.509 104.39 106.789 107.84 105.879L107.35 102.069C106.433 102.369 105.464 102.473 104.505 102.374C103.545 102.276 102.617 101.978 101.78 101.499C99.82 100.239 97.46 99.0291 94 101.179Z" fill="#FEA4FF"/>
<path d="M252.34 61.1201L248.63 59.1201C248.63 59.1201 245.63 63.6501 249.24 65.9301C249.24 65.9201 248.53 62.9801 252.34 61.1201Z" fill="#5A5DE0"/>
<path d="M249.34 71.4399L253.24 69.9899C253.24 69.9899 253.47 66.6399 249.24 65.9199C249.24 65.9199 251.89 68.9499 249.34 71.4399Z" fill="#5A5DE0"/>
<path d="M250.979 20.0099L250.529 23.4999C250.529 23.4999 252.589 21.9799 255.869 23.5999C259.149 25.2199 259.049 28.6499 262.609 28.9099L263.359 25.1299C262.395 25.1181 261.444 24.9047 260.568 24.5034C259.691 24.1022 258.908 23.5219 258.269 22.7999C256.789 20.9899 254.949 19.0799 250.979 20.0099Z" fill="#FFC727"/>
<path d="M139.87 62.88L134.25 64.48C134.25 64.48 131.57 57.48 137.14 55.48C137.14 55.5 135.25 59.21 139.87 62.88Z" fill="#455A64"/>
<path d="M138.951 48.0498L143.781 51.1898C143.781 51.1898 143.071 55.7798 137.141 55.4698C137.141 55.4998 141.641 52.1798 138.951 48.0498Z" fill="#455A64"/>
<path d="M157.529 24.0799L158.139 28.2499C158.139 28.2499 163.559 27.9299 163.219 23.6699C163.199 23.6699 161.299 26.0299 157.529 24.0799Z" fill="#5A5DE0"/>
<path d="M167.53 20.2798L164.03 18.0298C164.03 18.0298 161.22 19.8598 163.18 23.6698C163.2 23.6698 164.03 19.7298 167.53 20.2798Z" fill="#5A5DE0"/>
<mask id="path-19-inside-1_2_48656" fill="white">
<path d="M197.195 69.653C196.633 71.6682 196.309 73.7427 196.233 75.8336C196.129 77.9176 196.195 80.0067 196.43 82.0801C196.678 84.1521 197.003 86.214 197.352 88.2809C197.702 90.3479 198.056 92.4149 198.274 94.5072C198.555 96.6156 198.479 98.7562 198.051 100.84C197.474 102.882 196.593 104.825 195.437 106.605C194.9 107.502 194.348 108.388 193.917 109.32C193.41 110.212 193.182 111.236 193.264 112.259C193.308 112.761 193.471 113.245 193.739 113.672C194.008 114.098 194.375 114.455 194.809 114.711C195.26 114.963 195.787 115.046 196.293 114.944C196.548 114.888 196.787 114.778 196.995 114.621C197.203 114.465 197.375 114.266 197.499 114.037C197.382 114.276 197.216 114.488 197.01 114.657C196.805 114.827 196.566 114.95 196.309 115.02C195.783 115.144 195.23 115.077 194.748 114.832C194.271 114.579 193.862 114.214 193.556 113.768C193.25 113.323 193.056 112.81 192.99 112.274C192.873 111.199 193.085 110.115 193.598 109.163C194.039 108.201 194.581 107.299 195.118 106.387C196.131 104.568 197.144 102.729 197.621 100.718C198.024 98.6855 198.08 96.5992 197.788 94.5477C197.383 90.4036 196.45 86.295 196.065 82.1105C195.68 77.9259 195.858 73.64 197.195 69.653Z"/>
</mask>
<path d="M197.195 69.653C196.633 71.6682 196.309 73.7427 196.233 75.8336C196.129 77.9176 196.195 80.0067 196.43 82.0801C196.678 84.1521 197.003 86.214 197.352 88.2809C197.702 90.3479 198.056 92.4149 198.274 94.5072C198.555 96.6156 198.479 98.7562 198.051 100.84C197.474 102.882 196.593 104.825 195.437 106.605C194.9 107.502 194.348 108.388 193.917 109.32C193.41 110.212 193.182 111.236 193.264 112.259C193.308 112.761 193.471 113.245 193.739 113.672C194.008 114.098 194.375 114.455 194.809 114.711C195.26 114.963 195.787 115.046 196.293 114.944C196.548 114.888 196.787 114.778 196.995 114.621C197.203 114.465 197.375 114.266 197.499 114.037C197.382 114.276 197.216 114.488 197.01 114.657C196.805 114.827 196.566 114.95 196.309 115.02C195.783 115.144 195.23 115.077 194.748 114.832C194.271 114.579 193.862 114.214 193.556 113.768C193.25 113.323 193.056 112.81 192.99 112.274C192.873 111.199 193.085 110.115 193.598 109.163C194.039 108.201 194.581 107.299 195.118 106.387C196.131 104.568 197.144 102.729 197.621 100.718C198.024 98.6855 198.08 96.5992 197.788 94.5477C197.383 90.4036 196.45 86.295 196.065 82.1105C195.68 77.9259 195.858 73.64 197.195 69.653Z" fill="#263238"/>
<path d="M197.195 69.653L200.085 70.4596L194.351 68.6989L197.195 69.653ZM196.233 75.8336L199.229 75.983L199.23 75.9635L199.231 75.9439L196.233 75.8336ZM196.43 82.0801L193.449 82.4186L193.45 82.4278L193.451 82.4369L196.43 82.0801ZM198.274 94.5072L195.29 94.8178L195.295 94.8604L195.3 94.9028L198.274 94.5072ZM198.051 100.84L200.938 101.655L200.968 101.55L200.99 101.444L198.051 100.84ZM195.437 106.605L192.921 104.971L192.892 105.017L192.863 105.064L195.437 106.605ZM193.917 109.32L196.525 110.804L196.588 110.694L196.641 110.578L193.917 109.32ZM193.264 112.259L190.273 112.498L190.274 112.508L190.275 112.519L193.264 112.259ZM194.809 114.711L193.284 117.294L193.314 117.312L193.343 117.328L194.809 114.711ZM196.293 114.944L196.886 117.885L196.913 117.879L196.94 117.873L196.293 114.944ZM197.499 114.037L200.195 115.352L194.864 112.603L197.499 114.037ZM196.309 115.02L196.997 117.94L197.043 117.929L197.089 117.916L196.309 115.02ZM194.748 114.832L193.341 117.482L193.364 117.494L193.388 117.506L194.748 114.832ZM192.99 112.274L190.008 112.598L190.01 112.618L190.012 112.638L192.99 112.274ZM193.598 109.163L196.239 110.587L196.285 110.501L196.326 110.412L193.598 109.163ZM195.118 106.387L197.703 107.909L197.721 107.879L197.739 107.847L195.118 106.387ZM197.621 100.718L200.54 101.409L200.553 101.356L200.563 101.302L197.621 100.718ZM197.788 94.5477L194.802 94.8397L194.809 94.9055L194.818 94.9709L197.788 94.5477ZM194.306 68.8463C193.68 71.0886 193.32 73.3968 193.235 75.7233L199.231 75.9439C199.299 74.0886 199.585 72.2478 200.085 70.4596L194.306 68.8463ZM193.236 75.6841C193.124 77.931 193.195 80.1833 193.449 82.4186L199.411 81.7415C199.194 79.8302 199.133 77.9043 199.229 75.983L193.236 75.6841ZM193.451 82.4369C193.708 84.5787 194.041 86.6948 194.394 88.7812L200.31 87.7807C199.964 85.7332 199.649 83.7255 199.409 81.7232L193.451 82.4369ZM194.394 88.7812C194.748 90.8708 195.084 92.8388 195.29 94.8178L201.258 94.1965C201.028 91.9909 200.656 89.825 200.31 87.7807L194.394 88.7812ZM195.3 94.9028C195.537 96.6785 195.473 98.4813 195.113 100.236L200.99 101.444C201.486 99.0312 201.573 96.5527 201.248 94.1115L195.3 94.9028ZM195.164 100.024C194.669 101.776 193.913 103.444 192.921 104.971L197.953 108.239C199.273 106.207 200.28 103.987 200.938 101.655L195.164 100.024ZM192.863 105.064C192.37 105.888 191.709 106.946 191.194 108.062L196.641 110.578C196.987 109.83 197.43 109.116 198.011 108.146L192.863 105.064ZM191.31 107.836C190.505 109.251 190.144 110.875 190.273 112.498L196.254 112.02C196.221 111.597 196.315 111.173 196.525 110.804L191.31 107.836ZM190.275 112.519C190.36 113.497 190.678 114.441 191.201 115.271L196.278 112.072C196.263 112.05 196.255 112.025 196.253 111.998L190.275 112.519ZM191.201 115.271C191.725 116.102 192.439 116.795 193.284 117.294L196.334 112.127C196.311 112.114 196.292 112.095 196.278 112.072L191.201 115.271ZM193.343 117.328C194.42 117.931 195.677 118.128 196.886 117.885L195.7 112.003C195.896 111.963 196.1 111.995 196.275 112.093L193.343 117.328ZM196.94 117.873C197.613 117.725 198.247 117.433 198.798 117.019L195.191 112.224C195.327 112.122 195.482 112.051 195.647 112.014L196.94 117.873ZM198.798 117.019C199.349 116.604 199.805 116.076 200.134 115.471L194.864 112.603C194.945 112.455 195.056 112.325 195.191 112.224L198.798 117.019ZM194.803 112.722C194.874 112.576 194.975 112.447 195.1 112.344L198.92 116.971C199.456 116.529 199.891 115.977 200.195 115.352L194.803 112.722ZM195.1 112.344C195.226 112.241 195.371 112.165 195.528 112.123L197.089 117.916C197.76 117.736 198.384 117.413 198.92 116.971L195.1 112.344ZM195.62 112.1C195.785 112.061 195.958 112.082 196.109 112.158L193.388 117.506C194.502 118.073 195.781 118.226 196.997 117.94L195.62 112.1ZM196.156 112.183C196.105 112.156 196.061 112.117 196.029 112.069L191.083 115.467C191.663 116.311 192.437 117.001 193.341 117.482L196.156 112.183ZM196.029 112.069C195.996 112.022 195.975 111.967 195.968 111.91L190.012 112.638C190.137 113.654 190.504 114.624 191.083 115.467L196.029 112.069ZM195.973 111.95C195.922 111.479 196.014 111.004 196.239 110.587L190.957 107.74C190.156 109.226 189.825 110.92 190.008 112.598L195.973 111.95ZM196.326 110.412C196.688 109.621 197.139 108.867 197.703 107.909L192.533 104.865C192.023 105.731 191.39 106.781 190.871 107.914L196.326 110.412ZM197.739 107.847C198.721 106.083 199.953 103.89 200.54 101.409L194.701 100.027C194.336 101.569 193.541 103.053 192.497 104.927L197.739 107.847ZM200.563 101.302C201.032 98.9373 201.098 96.5107 200.758 94.1245L194.818 94.9709C195.063 96.6878 195.015 98.4337 194.678 100.135L200.563 101.302ZM200.774 94.2557C200.56 92.0747 200.21 89.9169 199.881 87.869C199.547 85.7889 199.235 83.8121 199.053 81.8356L193.078 82.3853C193.281 84.5934 193.627 86.7632 193.957 88.8195C194.292 90.908 194.61 92.8766 194.802 94.8397L200.774 94.2557ZM199.053 81.8356C198.69 77.8973 198.88 74.0647 200.039 70.6071L194.351 68.6989C192.836 73.2152 192.67 77.9544 193.078 82.3853L199.053 81.8356Z" fill="black" mask="url(#path-19-inside-1_2_48656)"/>
<path d="M209.293 51.3491C208.4 54.7778 206.707 57.9461 204.353 60.5947C201.182 64.3132 197.808 66.4359 197.869 66.8057C198.041 67.8594 199.176 69.3995 199.12 69.7592C199.064 70.1189 198.218 70.5242 197.494 70.5698C196.769 70.6154 195.878 70.3215 195.771 69.977C195.665 69.6326 196.597 67.9506 196.628 66.8817C196.628 66.1319 182.032 60.1488 182.128 46.435C182.179 39.3982 186.419 36.3028 190.097 34.8944C191.706 34.291 193.394 33.9241 195.108 33.8052C197.104 33.6735 208.067 33.4506 209.607 44.6568C209.922 46.8875 209.815 49.1576 209.293 51.3491Z" fill="#FFC727"/>
<path opacity="0.1" d="M197.848 66.8058C198.02 67.8595 199.155 69.3996 199.1 69.7593C199.044 70.119 198.198 70.5243 197.473 70.5699C196.749 70.6155 195.857 70.3216 195.751 69.9772C195.644 69.6327 196.577 67.9507 196.607 66.8818C196.607 66.132 182.012 60.149 182.108 46.4351C182.159 39.3983 186.399 36.3029 190.077 34.8945C186.931 37.9342 183.197 43.826 186.753 52.7525C190.041 60.9899 198.259 62.9606 204.333 60.5948C201.182 64.3133 197.808 66.436 197.848 66.8058Z" fill="black"/>
<path d="M206.46 39.8794C207.428 41.7032 206.906 43.8765 205.29 44.7378C203.674 45.599 201.577 44.8138 200.609 42.99C199.641 41.1662 200.163 38.9928 201.779 38.1316C203.395 37.2704 205.498 38.0556 206.46 39.8794Z" fill="#E8EFFD"/>
<mask id="path-24-inside-2_2_48656" fill="white">
<path d="M126.538 83.5743C126.594 85.6717 126.097 87.7336 125.9 89.8056C125.781 90.8391 125.704 91.876 125.667 92.9162C125.598 93.9489 125.634 94.986 125.773 96.0116C126.361 100.12 127.987 104.021 128.737 108.17C128.923 109.212 129.023 110.268 129.036 111.326C129.044 112.392 128.906 113.454 128.625 114.483C128.007 116.491 127.24 118.45 126.33 120.344C125.907 121.288 125.568 122.268 125.317 123.272C125.068 124.27 125.068 125.314 125.317 126.312C125.435 126.81 125.654 127.279 125.961 127.69C126.268 128.1 126.656 128.443 127.1 128.698C128.039 129.17 129.105 129.328 130.14 129.149C129.104 129.378 128.021 129.258 127.06 128.809C126.587 128.558 126.17 128.213 125.835 127.795C125.501 127.377 125.255 126.894 125.114 126.378C124.822 125.345 124.799 124.255 125.049 123.211C125.282 122.182 125.604 121.175 126.011 120.202C126.781 118.257 127.703 116.372 128.215 114.376C128.687 112.367 128.706 110.279 128.271 108.261C127.911 106.235 127.338 104.208 126.781 102.182C126.164 100.181 125.703 98.1348 125.403 96.0622C125.286 95.0124 125.272 93.9535 125.363 92.901C125.434 91.8574 125.53 90.8087 125.672 89.7702C125.935 87.6931 126.477 85.6666 126.538 83.5743Z"/>
</mask>
<path d="M126.538 83.5743C126.594 85.6717 126.097 87.7336 125.9 89.8056C125.781 90.8391 125.704 91.876 125.667 92.9162C125.598 93.9489 125.634 94.986 125.773 96.0116C126.361 100.12 127.987 104.021 128.737 108.17C128.923 109.212 129.023 110.268 129.036 111.326C129.044 112.392 128.906 113.454 128.625 114.483C128.007 116.491 127.24 118.45 126.33 120.344C125.907 121.288 125.568 122.268 125.317 123.272C125.068 124.27 125.068 125.314 125.317 126.312C125.435 126.81 125.654 127.279 125.961 127.69C126.268 128.1 126.656 128.443 127.1 128.698C128.039 129.17 129.105 129.328 130.14 129.149C129.104 129.378 128.021 129.258 127.06 128.809C126.587 128.558 126.17 128.213 125.835 127.795C125.501 127.377 125.255 126.894 125.114 126.378C124.822 125.345 124.799 124.255 125.049 123.211C125.282 122.182 125.604 121.175 126.011 120.202C126.781 118.257 127.703 116.372 128.215 114.376C128.687 112.367 128.706 110.279 128.271 108.261C127.911 106.235 127.338 104.208 126.781 102.182C126.164 100.181 125.703 98.1348 125.403 96.0622C125.286 95.0124 125.272 93.9535 125.363 92.901C125.434 91.8574 125.53 90.8087 125.672 89.7702C125.935 87.6931 126.477 85.6666 126.538 83.5743Z" fill="#263238"/>
<path d="M126.538 83.5743L129.537 83.4947L123.539 83.4872L126.538 83.5743ZM125.9 89.8056L128.88 90.1465L128.883 90.1185L128.886 90.0904L125.9 89.8056ZM125.667 92.9162L128.66 93.1154L128.663 93.0693L128.665 93.0233L125.667 92.9162ZM125.773 96.0116L122.8 96.4158L122.802 96.4261L122.803 96.4364L125.773 96.0116ZM128.737 108.17L131.69 107.643L131.689 107.637L128.737 108.17ZM129.036 111.326L132.035 111.302L132.035 111.29L129.036 111.326ZM128.625 114.483L131.492 115.365L131.506 115.319L131.519 115.273L128.625 114.483ZM126.33 120.344L123.626 119.045L123.609 119.081L123.593 119.117L126.33 120.344ZM125.317 123.272L122.407 122.545L122.406 122.546L125.317 123.272ZM125.317 126.312L128.236 125.62L128.232 125.603L128.228 125.585L125.317 126.312ZM127.1 128.698L125.61 131.302L125.68 131.342L125.752 131.378L127.1 128.698ZM130.14 129.149L130.787 132.078L129.627 126.193L130.14 129.149ZM127.06 128.809L125.654 131.46L125.721 131.495L125.791 131.528L127.06 128.809ZM125.114 126.378L128.009 125.588L128.005 125.574L128.001 125.56L125.114 126.378ZM125.049 123.211L127.966 123.908L127.97 123.891L127.974 123.874L125.049 123.211ZM126.011 120.202L128.779 121.36L128.79 121.333L128.8 121.306L126.011 120.202ZM128.215 114.376L131.121 115.121L131.128 115.092L131.135 115.062L128.215 114.376ZM128.271 108.261L125.317 108.786L125.326 108.84L125.338 108.894L128.271 108.261ZM126.781 102.182L129.674 101.387L129.662 101.342L129.648 101.298L126.781 102.182ZM125.403 96.0622L122.422 96.3952L122.427 96.4439L122.434 96.4924L125.403 96.0622ZM125.363 92.901L128.352 93.1574L128.354 93.1309L128.356 93.1044L125.363 92.901ZM125.672 89.7702L128.644 90.1762L128.646 90.1619L128.648 90.1476L125.672 89.7702ZM123.539 83.654C123.56 84.4541 123.477 85.3006 123.341 86.2928C123.217 87.206 123.019 88.4058 122.913 89.5209L128.886 90.0904C128.977 89.1334 129.127 88.2662 129.286 87.1062C129.434 86.0251 129.571 84.7919 129.537 83.4947L123.539 83.654ZM122.919 89.4647C122.792 90.5759 122.708 91.6908 122.668 92.8091L128.665 93.0233C128.699 92.0611 128.771 91.1023 128.88 90.1465L122.919 89.4647ZM122.673 92.717C122.591 93.9511 122.634 95.1903 122.8 96.4158L128.746 95.6074C128.633 94.7817 128.605 93.9468 128.66 93.1154L122.673 92.717ZM122.803 96.4364C123.13 98.7182 123.738 100.902 124.31 102.9C124.897 104.957 125.442 106.808 125.784 108.704L131.689 107.637C131.282 105.383 130.638 103.21 130.079 101.251C129.502 99.2348 129.004 97.4136 128.743 95.5868L122.803 96.4364ZM125.783 108.697C125.94 109.577 126.025 110.469 126.036 111.363L132.035 111.29C132.02 110.067 131.905 108.847 131.69 107.643L125.783 108.697ZM126.036 111.351C126.042 112.141 125.94 112.929 125.731 113.692L131.519 115.273C131.873 113.979 132.046 112.643 132.035 111.302L126.036 111.351ZM125.758 113.6C125.184 115.465 124.471 117.286 123.626 119.045L129.035 121.643C130.009 119.614 130.83 117.516 131.492 115.365L125.758 113.6ZM123.593 119.117C123.097 120.222 122.7 121.37 122.407 122.545L128.228 123.999C128.436 123.167 128.717 122.354 129.068 121.571L123.593 119.117ZM122.406 122.546C122.038 124.021 122.038 125.563 122.406 127.038L128.228 125.585C128.098 125.064 128.098 124.52 128.228 123.999L122.406 122.546ZM122.398 127.003C122.611 127.902 123.006 128.746 123.558 129.486L128.364 125.894C128.303 125.812 128.26 125.719 128.236 125.62L122.398 127.003ZM123.558 129.486C124.111 130.225 124.809 130.843 125.61 131.302L128.591 126.094C128.502 126.044 128.425 125.975 128.364 125.894L123.558 129.486ZM125.752 131.378C127.265 132.139 128.983 132.394 130.653 132.105L129.627 126.193C129.226 126.263 128.813 126.201 128.449 126.018L125.752 131.378ZM129.493 126.219C129.102 126.306 128.692 126.261 128.329 126.091L125.791 131.528C127.35 132.256 129.106 132.449 130.787 132.078L129.493 126.219ZM128.466 126.159C128.354 126.1 128.257 126.019 128.178 125.921L123.493 129.669C124.083 130.407 124.819 131.017 125.654 131.46L128.466 126.159ZM128.178 125.921C128.099 125.823 128.042 125.709 128.009 125.588L122.22 127.167C122.469 128.079 122.902 128.931 123.493 129.669L128.178 125.921ZM128.001 125.56C127.848 125.021 127.836 124.453 127.966 123.908L122.131 122.514C121.762 124.057 121.796 125.669 122.228 127.195L128.001 125.56ZM127.974 123.874C128.169 123.015 128.438 122.173 128.779 121.36L123.244 119.044C122.769 120.178 122.394 121.35 122.123 122.548L127.974 123.874ZM128.8 121.306C129.453 119.659 130.547 117.359 131.121 115.121L125.309 113.631C124.859 115.385 124.11 116.855 123.222 119.098L128.8 121.306ZM131.135 115.062C131.709 112.62 131.732 110.081 131.203 107.629L125.338 108.894C125.679 110.476 125.664 112.114 125.294 113.69L131.135 115.062ZM131.224 107.737C130.835 105.544 130.218 103.367 129.674 101.387L123.889 102.978C124.458 105.05 124.987 106.926 125.317 108.786L131.224 107.737ZM129.648 101.298C129.077 99.4454 128.65 97.5509 128.372 95.632L122.434 96.4924C122.757 98.7186 123.252 100.916 123.914 103.066L129.648 101.298ZM128.385 95.7293C128.289 94.8751 128.278 94.0137 128.352 93.1574L122.374 92.6446C122.266 93.8933 122.283 95.1496 122.422 96.3952L128.385 95.7293ZM128.356 93.1044C128.424 92.1065 128.514 91.1286 128.644 90.1762L122.699 89.3642C122.546 90.4888 122.444 91.6083 122.37 92.6976L128.356 93.1044ZM128.648 90.1476C128.769 89.1952 128.945 88.3076 129.138 87.1844C129.319 86.1233 129.5 84.9251 129.537 83.6615L123.539 83.4872C123.515 84.3159 123.394 85.177 123.224 86.1715C123.064 87.1038 122.838 88.268 122.695 89.3927L128.648 90.1476Z" fill="black" mask="url(#path-24-inside-2_2_48656)"/>
<path d="M138.16 65.458C137.264 68.881 135.571 72.0438 133.22 74.6884C130.049 78.4018 126.68 80.5245 126.736 80.8944C126.908 81.9481 128.048 83.4933 127.987 83.8479C127.926 84.2025 127.09 84.6129 126.361 84.6584C125.631 84.704 124.745 84.4153 124.638 84.0657C124.532 83.7162 125.464 82.0393 125.5 80.9754C125.5 80.2256 110.904 74.2426 111 60.5287C111.046 53.4868 115.286 50.3712 118.964 48.9882C120.576 48.388 122.265 48.0196 123.98 47.8939C125.976 47.7672 136.939 47.5443 138.474 58.7454C138.794 60.9827 138.687 63.2604 138.16 65.458Z" fill="#FFC727"/>
<path opacity="0.1" d="M126.736 80.9149C126.908 81.9686 128.048 83.5138 127.987 83.8684C127.926 84.223 127.09 84.6334 126.361 84.679C125.631 84.7246 124.745 84.4358 124.638 84.0862C124.532 83.7367 125.464 82.0598 125.5 80.9959C125.5 80.2461 110.904 74.2631 111 60.5492C111.046 53.5073 115.286 50.3917 118.964 49.0087C115.823 52.0483 112.085 57.9351 115.641 66.8615C118.929 75.099 127.146 77.0748 133.22 74.7089C130.049 78.4223 126.68 80.545 126.736 80.9149Z" fill="black"/>
<path d="M135.339 53.9935C136.306 55.8173 135.784 57.9907 134.168 58.8519C132.552 59.7131 130.46 58.9279 129.487 57.1041C128.515 55.2803 129.041 53.1019 130.658 52.2457C132.274 51.3896 134.366 52.1697 135.339 53.9935Z" fill="#E8EFFD"/>
<mask id="path-29-inside-3_2_48656" fill="white">
<path d="M216.461 96.7308C217.104 98.8409 217.612 100.99 217.981 103.165C218.368 105.348 218.522 107.566 218.442 109.781C218.362 110.891 218.175 111.99 217.885 113.064L217.064 116.266C216.468 118.375 215.999 120.519 215.661 122.684C215.499 123.749 215.499 124.832 215.661 125.896C215.869 126.955 216.167 128.024 216.441 129.083C216.993 131.216 217.576 133.343 218.017 135.507C218.239 136.591 218.437 137.68 218.574 138.779C218.647 139.329 218.689 139.882 218.7 140.436C218.727 140.999 218.679 141.562 218.559 142.113C218.522 142.253 218.475 142.39 218.417 142.523L218.224 142.898C218.091 143.145 217.937 143.381 217.763 143.602C217.422 144.052 216.984 144.419 216.482 144.676C215.978 144.93 215.411 145.03 214.85 144.965C214.299 144.879 213.79 144.616 213.401 144.215C213.8 144.595 214.313 144.832 214.86 144.889C215.402 144.935 215.945 144.819 216.421 144.555C217.353 143.998 218.033 143.1 218.315 142.052C218.472 140.979 218.452 139.887 218.255 138.82C218.103 137.736 217.88 136.662 217.637 135.593C217.13 133.455 216.573 131.327 215.995 129.204C215.711 128.135 215.408 127.082 215.185 125.987C215.012 124.871 215.012 123.735 215.185 122.619C215.522 120.435 215.993 118.275 216.593 116.149L217.434 112.958C217.726 111.908 217.924 110.835 218.027 109.751C218.15 107.564 218.045 105.37 217.713 103.205C217.417 101.025 216.999 98.8639 216.461 96.7308Z"/>
</mask>
<path d="M216.461 96.7308C217.104 98.8409 217.612 100.99 217.981 103.165C218.368 105.348 218.522 107.566 218.442 109.781C218.362 110.891 218.175 111.99 217.885 113.064L217.064 116.266C216.468 118.375 215.999 120.519 215.661 122.684C215.499 123.749 215.499 124.832 215.661 125.896C215.869 126.955 216.167 128.024 216.441 129.083C216.993 131.216 217.576 133.343 218.017 135.507C218.239 136.591 218.437 137.68 218.574 138.779C218.647 139.329 218.689 139.882 218.7 140.436C218.727 140.999 218.679 141.562 218.559 142.113C218.522 142.253 218.475 142.39 218.417 142.523L218.224 142.898C218.091 143.145 217.937 143.381 217.763 143.602C217.422 144.052 216.984 144.419 216.482 144.676C215.978 144.93 215.411 145.03 214.85 144.965C214.299 144.879 213.79 144.616 213.401 144.215C213.8 144.595 214.313 144.832 214.86 144.889C215.402 144.935 215.945 144.819 216.421 144.555C217.353 143.998 218.033 143.1 218.315 142.052C218.472 140.979 218.452 139.887 218.255 138.82C218.103 137.736 217.88 136.662 217.637 135.593C217.13 133.455 216.573 131.327 215.995 129.204C215.711 128.135 215.408 127.082 215.185 125.987C215.012 124.871 215.012 123.735 215.185 122.619C215.522 120.435 215.993 118.275 216.593 116.149L217.434 112.958C217.726 111.908 217.924 110.835 218.027 109.751C218.15 107.564 218.045 105.37 217.713 103.205C217.417 101.025 216.999 98.8639 216.461 96.7308Z" fill="#263238"/>
<path d="M216.461 96.7308L219.331 95.8563L213.552 97.464L216.461 96.7308ZM217.981 103.165L215.023 103.667L215.025 103.677L215.027 103.688L217.981 103.165ZM218.442 109.781L221.434 109.997L221.438 109.944L221.44 109.89L218.442 109.781ZM217.885 113.064L214.989 112.281L214.984 112.3L214.979 112.319L217.885 113.064ZM217.064 116.266L219.951 117.082L219.961 117.046L219.97 117.011L217.064 116.266ZM215.661 122.684L212.697 122.221L212.695 122.233L215.661 122.684ZM215.661 125.896L212.695 126.348L212.705 126.411L212.717 126.474L215.661 125.896ZM216.441 129.083L213.536 129.833L213.537 129.835L216.441 129.083ZM218.017 135.507L215.077 136.106L215.078 136.111L218.017 135.507ZM218.574 138.779L215.597 139.15L215.598 139.162L215.6 139.173L218.574 138.779ZM218.7 140.436L215.701 140.499L215.702 140.537L215.704 140.575L218.7 140.436ZM218.559 142.113L221.461 142.87L221.477 142.812L221.49 142.753L218.559 142.113ZM218.417 142.523L221.085 143.894L221.129 143.808L221.168 143.72L218.417 142.523ZM218.224 142.898L220.865 144.322L220.879 144.295L220.893 144.268L218.224 142.898ZM217.763 143.602L215.402 141.752L215.387 141.771L215.372 141.79L217.763 143.602ZM216.482 144.676L217.831 147.355L217.839 147.352L217.847 147.347L216.482 144.676ZM214.85 144.965L214.387 147.929L214.445 147.938L214.502 147.945L214.85 144.965ZM213.401 144.215L215.472 142.044L211.249 146.305L213.401 144.215ZM214.86 144.889L214.55 147.873L214.578 147.876L214.606 147.878L214.86 144.889ZM216.421 144.555L217.878 147.177L217.919 147.154L217.959 147.13L216.421 144.555ZM218.315 142.052L221.212 142.834L221.258 142.662L221.284 142.486L218.315 142.052ZM218.255 138.82L215.284 139.236L215.293 139.301L215.305 139.365L218.255 138.82ZM217.637 135.593L220.562 134.927L220.559 134.914L220.556 134.901L217.637 135.593ZM215.995 129.204L213.096 129.974L213.098 129.983L213.1 129.992L215.995 129.204ZM215.185 125.987L212.22 126.445L212.231 126.516L212.245 126.586L215.185 125.987ZM215.185 122.619L212.22 122.16L212.22 122.161L215.185 122.619ZM216.593 116.149L219.48 116.965L219.487 116.939L219.494 116.914L216.593 116.149ZM217.434 112.958L214.544 112.153L214.538 112.173L214.533 112.193L217.434 112.958ZM218.027 109.751L221.013 110.032L221.019 109.976L221.022 109.919L218.027 109.751ZM217.713 103.205L214.74 103.609L214.743 103.634L214.747 103.66L217.713 103.205ZM213.592 97.6054C214.197 99.5933 214.676 101.618 215.023 103.667L220.939 102.663C220.548 100.362 220.011 98.0886 219.331 95.8563L213.592 97.6054ZM215.027 103.688C215.377 105.663 215.517 107.669 215.444 109.672L221.44 109.89C221.528 107.463 221.359 105.033 220.935 102.641L215.027 103.688ZM215.45 109.565C215.384 110.483 215.229 111.392 214.989 112.281L220.781 113.847C221.121 112.588 221.34 111.299 221.434 109.997L215.45 109.565ZM214.979 112.319L214.158 115.521L219.97 117.011L220.791 113.809L214.979 112.319ZM214.177 115.45C213.548 117.675 213.054 119.936 212.697 122.221L218.625 123.148C218.945 121.101 219.388 119.075 219.951 117.082L214.177 115.45ZM212.695 122.233C212.487 123.597 212.487 124.984 212.695 126.348L218.627 125.445C218.51 124.68 218.51 123.901 218.627 123.136L212.695 122.233ZM212.717 126.474C212.947 127.647 213.284 128.856 213.536 129.833L219.346 128.332C219.051 127.193 218.79 126.263 218.605 125.319L212.717 126.474ZM213.537 129.835C214.104 132.024 214.657 134.042 215.077 136.106L220.956 134.908C220.495 132.645 219.883 130.407 219.345 128.331L213.537 129.835ZM215.078 136.111C215.292 137.152 215.473 138.158 215.597 139.15L221.551 138.409C221.401 137.202 221.187 136.029 220.955 134.902L215.078 136.111ZM215.6 139.173C215.658 139.613 215.692 140.055 215.701 140.499L221.7 140.373C221.686 139.708 221.635 139.045 221.548 138.385L215.6 139.173ZM215.704 140.575C215.718 140.876 215.692 141.178 215.628 141.473L221.49 142.753C221.666 141.947 221.735 141.121 221.697 140.297L215.704 140.575ZM215.656 141.355C215.658 141.345 215.662 141.335 215.666 141.326L221.168 143.72C221.287 143.445 221.386 143.161 221.461 142.87L215.656 141.355ZM215.748 141.153L215.556 141.528L220.893 144.268L221.085 143.894L215.748 141.153ZM215.584 141.474C215.531 141.572 215.47 141.664 215.402 141.752L220.124 145.453C220.403 145.098 220.651 144.719 220.865 144.322L215.584 141.474ZM215.372 141.79C215.304 141.88 215.217 141.954 215.116 142.005L217.847 147.347C218.752 146.885 219.541 146.224 220.154 145.414L215.372 141.79ZM215.132 141.997C215.152 141.987 215.175 141.983 215.198 141.985L214.502 147.945C215.646 148.078 216.803 147.873 217.831 147.355L215.132 141.997ZM215.313 142.001C215.405 142.015 215.489 142.059 215.554 142.125L211.249 146.305C212.091 147.172 213.193 147.742 214.387 147.929L215.313 142.001ZM211.331 146.386C212.21 147.224 213.342 147.747 214.55 147.873L215.171 141.905C215.284 141.917 215.389 141.966 215.472 142.044L211.331 146.386ZM214.606 147.878C215.742 147.975 216.881 147.731 217.878 147.177L214.964 141.932C215.01 141.907 215.062 141.895 215.115 141.9L214.606 147.878ZM217.959 147.13C219.56 146.175 220.726 144.634 221.212 142.834L215.419 141.27C215.339 141.567 215.147 141.821 214.883 141.979L217.959 147.13ZM221.284 142.486C221.488 141.087 221.462 139.665 221.205 138.275L215.305 139.365C215.442 140.109 215.456 140.87 215.347 141.618L221.284 142.486ZM221.226 138.403C221.056 137.196 220.812 136.027 220.562 134.927L214.711 136.258C214.948 137.296 215.149 138.276 215.284 139.236L221.226 138.403ZM220.556 134.901C220.039 132.719 219.472 130.556 218.89 128.417L213.1 129.992C213.673 132.098 214.221 134.191 214.717 136.285L220.556 134.901ZM218.895 128.435C218.589 127.284 218.324 126.369 218.124 125.389L212.245 126.586C212.491 127.794 212.834 128.987 213.096 129.974L218.895 128.435ZM218.15 125.53C218.024 124.717 218.024 123.889 218.15 123.076L212.22 122.161C212.001 123.581 212.001 125.025 212.22 126.445L218.15 125.53ZM218.149 123.077C218.468 121.014 218.913 118.973 219.48 116.965L213.706 115.334C213.072 117.577 212.576 119.856 212.22 122.16L218.149 123.077ZM219.494 116.914L220.335 113.722L214.533 112.193L213.692 115.385L219.494 116.914ZM220.324 113.762C220.664 112.542 220.894 111.294 221.013 110.032L215.04 109.469C214.954 110.376 214.788 111.275 214.544 112.153L220.324 113.762ZM221.022 109.919C221.157 107.524 221.042 105.122 220.678 102.751L214.747 103.66C215.048 105.619 215.143 107.603 215.031 109.582L221.022 109.919ZM220.685 102.802C220.374 100.511 219.935 98.2393 219.37 95.9977L213.552 97.464C214.062 99.4885 214.459 101.54 214.74 103.609L220.685 102.802Z" fill="black" mask="url(#path-29-inside-3_2_48656)"/>
<path d="M230.033 78.7414C228.817 82.0706 226.832 85.0651 224.238 87.4804C220.732 90.8797 217.145 92.6731 217.196 93.0531C217.267 94.122 218.249 95.7634 218.158 96.0927C218.067 96.422 217.191 96.7716 216.461 96.7462C215.732 96.7209 214.875 96.346 214.804 95.9914C214.734 95.6368 215.818 94.0561 215.954 92.9973C216.051 92.2526 202.063 84.8916 203.462 71.2638C204.176 64.2625 208.695 61.5623 212.484 60.5339C213.539 60.2513 214.618 60.0647 215.706 59.9766C216.33 59.9234 216.955 59.9048 217.581 59.9209C219.577 59.9817 230.514 60.8024 230.981 72.0795C231.086 74.3399 230.764 76.5999 230.033 78.7414Z" fill="#5A5DE0"/>
<path d="M217.196 93.018C217.267 94.0869 218.249 95.7283 218.158 96.0576C218.067 96.3869 217.191 96.7365 216.461 96.7111C215.732 96.6858 214.875 96.3109 214.804 95.9563C214.734 95.6017 215.818 94.0211 215.954 92.9622C216.051 92.2175 202.063 84.8565 203.462 71.2287C204.176 64.2274 208.695 61.5272 212.484 60.4988C209.065 63.2446 204.789 68.7312 207.484 77.9565C209.971 86.4726 217.966 89.2133 224.238 87.4351C220.732 90.8547 217.17 92.6481 217.196 93.018Z" fill="#4933B8"/>
<path d="M227.895 66.3953C228.685 68.3052 227.961 70.4178 226.269 71.122C224.577 71.8262 222.57 70.8433 221.775 68.9385C220.98 67.0336 221.709 64.916 223.401 64.2118C225.093 63.5077 227.105 64.4905 227.895 66.3953Z" fill="#E8EFFD"/>
<mask id="path-34-inside-4_2_48656" fill="white">
<path d="M155.708 98.8589C156.441 102.937 156.872 107.063 157 111.205C157.029 112.244 157.002 113.284 156.919 114.321C156.858 114.827 156.808 115.364 156.711 115.881C156.615 116.398 156.504 116.894 156.377 117.401C155.87 119.427 155.176 121.378 154.558 123.343C153.902 125.293 153.394 127.29 153.038 129.316C152.693 131.337 152.654 133.398 152.922 135.431C153.17 137.457 153.616 139.484 154.001 141.51C154.238 142.53 154.291 143.583 154.158 144.621C154.059 145.14 153.823 145.623 153.474 146.019C153.12 146.402 152.706 146.723 152.248 146.971C152.691 146.701 153.087 146.358 153.418 145.958C153.742 145.563 153.955 145.089 154.036 144.585C154.128 143.565 154.038 142.536 153.773 141.546C153.332 139.519 152.856 137.493 152.557 135.466C152.233 133.399 152.243 131.294 152.587 129.23C152.942 127.179 153.45 125.157 154.107 123.181C154.725 121.2 155.43 119.26 155.951 117.274C156.083 116.767 156.195 116.261 156.291 115.754C156.387 115.248 156.438 114.741 156.504 114.234C156.59 113.221 156.63 112.208 156.63 111.159C156.63 109.102 156.524 107.036 156.357 104.979C156.189 102.922 155.956 100.911 155.708 98.8589Z"/>
</mask>
<path d="M155.708 98.8589C156.441 102.937 156.872 107.063 157 111.205C157.029 112.244 157.002 113.284 156.919 114.321C156.858 114.827 156.808 115.364 156.711 115.881C156.615 116.398 156.504 116.894 156.377 117.401C155.87 119.427 155.176 121.378 154.558 123.343C153.902 125.293 153.394 127.29 153.038 129.316C152.693 131.337 152.654 133.398 152.922 135.431C153.17 137.457 153.616 139.484 154.001 141.51C154.238 142.53 154.291 143.583 154.158 144.621C154.059 145.14 153.823 145.623 153.474 146.019C153.12 146.402 152.706 146.723 152.248 146.971C152.691 146.701 153.087 146.358 153.418 145.958C153.742 145.563 153.955 145.089 154.036 144.585C154.128 143.565 154.038 142.536 153.773 141.546C153.332 139.519 152.856 137.493 152.557 135.466C152.233 133.399 152.243 131.294 152.587 129.23C152.942 127.179 153.45 125.157 154.107 123.181C154.725 121.2 155.43 119.26 155.951 117.274C156.083 116.767 156.195 116.261 156.291 115.754C156.387 115.248 156.438 114.741 156.504 114.234C156.59 113.221 156.63 112.208 156.63 111.159C156.63 109.102 156.524 107.036 156.357 104.979C156.189 102.922 155.956 100.911 155.708 98.8589Z" fill="#263238"/>
<path d="M155.708 98.8589L158.661 98.3286L152.73 99.2192L155.708 98.8589ZM157 111.205L159.999 111.122L159.999 111.112L157 111.205ZM156.919 114.321L159.898 114.678L159.905 114.619L159.909 114.559L156.919 114.321ZM154.558 123.343L157.402 124.3L157.411 124.272L157.42 124.243L154.558 123.343ZM153.038 129.316L150.084 128.797L150.082 128.804L150.081 128.811L153.038 129.316ZM152.922 135.431L155.9 135.066L155.898 135.053L155.896 135.039L152.922 135.431ZM154.001 141.51L151.054 142.07L151.065 142.13L151.079 142.189L154.001 141.51ZM154.158 144.621L157.105 145.181L157.122 145.092L157.134 145.002L154.158 144.621ZM153.474 146.019L155.677 148.056L155.701 148.029L155.725 148.002L153.474 146.019ZM152.248 146.971L150.684 144.411L153.677 149.609L152.248 146.971ZM153.418 145.958L155.728 147.872L155.734 147.865L155.74 147.858L153.418 145.958ZM154.036 144.585L156.998 145.064L157.015 144.959L157.024 144.852L154.036 144.585ZM153.773 141.546L150.841 142.183L150.857 142.253L150.875 142.323L153.773 141.546ZM152.557 135.466L155.525 135.029L155.523 135.015L155.521 135.001L152.557 135.466ZM152.587 129.23L149.631 128.719L149.63 128.727L149.628 128.736L152.587 129.23ZM154.107 123.181L156.954 124.128L156.963 124.101L156.971 124.075L154.107 123.181ZM155.951 117.274L158.853 118.036L158.855 118.029L155.951 117.274ZM156.504 114.234L159.479 114.621L159.487 114.555L159.493 114.489L156.504 114.234ZM152.755 99.3891C153.462 103.323 153.878 107.303 154.001 111.297L159.999 111.112C159.866 106.824 159.419 102.551 158.661 98.3286L152.755 99.3891ZM154.001 111.288C154.027 112.22 154.003 113.153 153.928 114.082L159.909 114.559C160.001 113.416 160.03 112.269 159.999 111.122L154.001 111.288ZM153.94 113.963C153.867 114.574 153.835 114.942 153.762 115.332L159.661 116.43C159.78 115.787 159.849 115.08 159.898 114.678L153.94 113.963ZM153.762 115.332C153.679 115.777 153.581 116.213 153.466 116.673L159.287 118.128C159.426 117.575 159.551 117.018 159.661 116.43L153.762 115.332ZM153.466 116.673C152.989 118.585 152.359 120.336 151.696 122.443L157.42 124.243C157.993 122.419 158.752 120.27 159.287 118.128L153.466 116.673ZM151.715 122.387C151.011 124.48 150.466 126.622 150.084 128.797L155.993 129.835C156.323 127.957 156.794 126.107 157.402 124.3L151.715 122.387ZM150.081 128.811C149.685 131.129 149.64 133.492 149.948 135.823L155.896 135.039C155.668 133.305 155.701 131.546 155.996 129.821L150.081 128.811ZM149.944 135.796C150.208 137.953 150.691 140.159 151.054 142.07L156.948 140.95C156.541 138.808 156.132 136.962 155.9 135.066L149.944 135.796ZM151.079 142.189C151.235 142.861 151.27 143.555 151.182 144.239L157.134 145.002C157.312 143.61 157.241 142.198 156.923 140.831L151.079 142.189ZM151.211 144.061C151.212 144.052 151.217 144.043 151.223 144.036L155.725 148.002C156.43 147.202 156.906 146.228 157.105 145.181L151.211 144.061ZM151.271 143.982C151.141 144.123 150.988 144.242 150.819 144.334L153.677 149.609C154.424 149.205 155.1 148.68 155.677 148.056L151.271 143.982ZM153.812 149.532C154.538 149.088 155.185 148.527 155.728 147.872L151.108 144.044C150.988 144.189 150.845 144.313 150.684 144.411L153.812 149.532ZM155.74 147.858C156.398 147.054 156.832 146.09 156.998 145.064L151.075 144.107C151.078 144.089 151.085 144.072 151.097 144.058L155.74 147.858ZM157.024 144.852C157.147 143.481 157.027 142.099 156.671 140.769L150.875 142.323C151.05 142.973 151.108 143.648 151.048 144.318L157.024 144.852ZM156.704 140.908C156.248 138.811 155.805 136.925 155.525 135.029L149.589 135.904C149.907 138.061 150.416 140.228 150.841 142.183L156.704 140.908ZM155.521 135.001C155.246 133.252 155.255 131.47 155.547 129.724L149.628 128.736C149.231 131.117 149.219 133.547 149.593 135.931L155.521 135.001ZM155.544 129.741C155.873 127.838 156.344 125.961 156.954 124.128L151.261 122.235C150.556 124.352 150.012 126.52 149.631 128.719L155.544 129.741ZM156.971 124.075C157.531 122.28 158.311 120.099 158.853 118.036L153.05 116.512C152.548 118.421 151.92 120.121 151.243 122.288L156.971 124.075ZM158.855 118.029C159.005 117.45 159.131 116.878 159.238 116.314L153.344 115.194C153.258 115.644 153.161 116.085 153.048 116.519L158.855 118.029ZM159.238 116.314C159.356 115.693 159.428 115.012 159.479 114.621L153.529 113.848C153.448 114.47 153.418 114.803 153.344 115.194L159.238 116.314ZM159.493 114.489C159.587 113.385 159.63 112.287 159.63 111.159H153.63C153.63 112.129 153.593 113.058 153.514 113.98L159.493 114.489ZM159.63 111.159C159.63 109.001 159.519 106.85 159.347 104.736L153.367 105.222C153.529 107.221 153.63 109.204 153.63 111.159H159.63ZM159.347 104.736C159.175 102.616 158.935 100.555 158.686 98.4986L152.73 99.2192C152.978 101.266 153.204 103.228 153.367 105.222L159.347 104.736Z" fill="black" mask="url(#path-34-inside-4_2_48656)"/>
<path d="M169.433 82.394C168.217 85.7232 166.231 88.7177 163.637 91.133C160.132 94.5272 156.57 96.3257 156.596 96.7056C156.667 97.7695 157.649 99.416 157.558 99.7453C157.467 100.075 156.591 100.419 155.861 100.399C155.131 100.379 154.275 99.9986 154.204 99.644C154.133 99.2893 155.218 97.7087 155.354 96.6499C155.451 95.9052 141.463 88.5442 142.856 74.9164C143.576 67.9151 148.095 65.2098 151.884 64.1865C152.939 63.9014 154.017 63.7148 155.106 63.6292C155.729 63.576 156.355 63.5574 156.981 63.5735C158.977 63.6343 169.914 64.455 170.38 75.7321C170.486 77.9925 170.164 80.2525 169.433 82.394Z" fill="#5A5DE0"/>
<path d="M156.596 96.6957C156.667 97.7596 157.649 99.4061 157.558 99.7353C157.467 100.065 156.591 100.409 155.861 100.389C155.131 100.369 154.275 99.9887 154.204 99.634C154.133 99.2794 155.218 97.6988 155.354 96.64C155.451 95.8953 141.463 88.5342 142.856 74.9065C143.576 67.9051 148.095 65.1999 151.884 64.1765C148.465 66.9223 144.189 72.4089 146.884 81.6342C149.371 90.1453 157.366 92.8911 163.637 91.1129C160.132 94.5274 156.57 96.3259 156.596 96.6957Z" fill="#4933B8"/>
<path d="M167.294 70.0736C168.085 71.9835 167.36 74.0961 165.668 74.8003C163.976 75.5045 161.97 74.5217 161.174 72.6168C160.379 70.712 161.109 68.5943 162.801 67.8901C164.493 67.186 166.504 68.1637 167.294 70.0736Z" fill="#E8EFFD"/>
<mask id="path-39-inside-5_2_48656" fill="white">
<path d="M143.454 59.4165C144.288 62.115 144.947 64.865 145.425 67.6489C145.908 70.4506 145.944 73.3114 145.531 76.1244C145.257 77.5172 144.907 78.8939 144.482 80.2482C144.092 81.6009 143.707 82.9535 143.358 84.3011C142.617 87.0107 142.109 89.7783 141.838 92.574C141.709 93.9647 141.718 95.3645 141.863 96.7535C142.015 98.1467 142.258 99.5297 142.506 100.918C143.013 103.689 143.601 106.46 143.849 109.287C143.993 110.704 143.993 112.131 143.849 113.548C143.769 114.26 143.618 114.963 143.398 115.645C143.159 116.319 142.843 116.964 142.456 117.565C141.741 118.777 141.121 120.042 140.602 121.349C140.346 122.003 140.164 122.682 140.06 123.376C139.929 124.068 140.044 124.785 140.384 125.402C140.023 124.792 139.881 124.077 139.984 123.376C140.073 122.67 140.243 121.976 140.49 121.309C140.984 119.982 141.582 118.696 142.278 117.464C142.643 116.869 142.938 116.235 143.16 115.574C143.363 114.914 143.499 114.235 143.565 113.548C143.682 112.154 143.656 110.752 143.489 109.363C143.18 106.572 142.603 103.79 142.081 101.034C141.823 99.6463 141.574 98.2531 141.407 96.8397C141.251 95.4212 141.234 93.9908 141.356 92.569C141.636 89.7464 142.158 86.9532 142.917 84.2201C143.271 82.8522 143.667 81.4945 144.062 80.1368C144.457 78.7791 144.898 77.4416 145.146 76.0839C145.598 73.3118 145.61 70.4856 145.181 67.7097C144.771 64.9134 144.194 62.1442 143.454 59.4165Z"/>
</mask>
<path d="M143.454 59.4165C144.288 62.115 144.947 64.865 145.425 67.6489C145.908 70.4506 145.944 73.3114 145.531 76.1244C145.257 77.5172 144.907 78.8939 144.482 80.2482C144.092 81.6009 143.707 82.9535 143.358 84.3011C142.617 87.0107 142.109 89.7783 141.838 92.574C141.709 93.9647 141.718 95.3645 141.863 96.7535C142.015 98.1467 142.258 99.5297 142.506 100.918C143.013 103.689 143.601 106.46 143.849 109.287C143.993 110.704 143.993 112.131 143.849 113.548C143.769 114.26 143.618 114.963 143.398 115.645C143.159 116.319 142.843 116.964 142.456 117.565C141.741 118.777 141.121 120.042 140.602 121.349C140.346 122.003 140.164 122.682 140.06 123.376C139.929 124.068 140.044 124.785 140.384 125.402C140.023 124.792 139.881 124.077 139.984 123.376C140.073 122.67 140.243 121.976 140.49 121.309C140.984 119.982 141.582 118.696 142.278 117.464C142.643 116.869 142.938 116.235 143.16 115.574C143.363 114.914 143.499 114.235 143.565 113.548C143.682 112.154 143.656 110.752 143.489 109.363C143.18 106.572 142.603 103.79 142.081 101.034C141.823 99.6463 141.574 98.2531 141.407 96.8397C141.251 95.4212 141.234 93.9908 141.356 92.569C141.636 89.7464 142.158 86.9532 142.917 84.2201C143.271 82.8522 143.667 81.4945 144.062 80.1368C144.457 78.7791 144.898 77.4416 145.146 76.0839C145.598 73.3118 145.61 70.4856 145.181 67.7097C144.771 64.9134 144.194 62.1442 143.454 59.4165Z" fill="#263238"/>
<path d="M143.454 59.4165L146.32 58.5301L140.558 60.202L143.454 59.4165ZM145.425 67.6489L142.468 68.1564L142.468 68.1596L145.425 67.6489ZM145.531 76.1244L148.475 76.7028L148.489 76.6321L148.499 76.5608L145.531 76.1244ZM144.482 80.2482L141.62 79.3501L141.609 79.3834L141.6 79.4169L144.482 80.2482ZM143.358 84.3011L146.252 85.0916L146.257 85.073L146.261 85.0544L143.358 84.3011ZM141.838 92.574L138.852 92.2843L138.85 92.2982L141.838 92.574ZM141.863 96.7535L138.879 97.0655L138.881 97.0789L141.863 96.7535ZM142.506 100.918L139.553 101.446L139.555 101.457L142.506 100.918ZM143.849 109.287L140.86 109.549L140.862 109.57L140.864 109.591L143.849 109.287ZM143.849 113.548L146.83 113.88L146.832 113.866L146.833 113.852L143.849 113.548ZM143.398 115.645L146.226 116.647L146.24 116.607L146.253 116.567L143.398 115.645ZM142.456 117.565L139.933 115.941L139.902 115.99L139.872 116.04L142.456 117.565ZM140.602 121.349L137.813 120.242L137.811 120.249L137.808 120.256L140.602 121.349ZM140.06 123.376L143.008 123.93L143.018 123.876L143.026 123.823L140.06 123.376ZM140.384 125.402L137.802 126.931L143.012 123.956L140.384 125.402ZM139.984 123.376L142.952 123.808L142.956 123.781L142.96 123.755L139.984 123.376ZM140.49 121.309L137.678 120.263L137.676 120.269L140.49 121.309ZM142.278 117.464L139.72 115.897L139.693 115.942L139.667 115.987L142.278 117.464ZM143.16 115.574L146.004 116.528L146.016 116.492L146.028 116.456L143.16 115.574ZM143.565 113.548L146.551 113.837L146.553 113.817L146.555 113.797L143.565 113.548ZM143.489 109.363L140.507 109.693L140.509 109.707L140.511 109.721L143.489 109.363ZM142.081 101.034L139.132 101.583L139.133 101.592L142.081 101.034ZM141.407 96.8397L138.425 97.168L138.426 97.18L138.428 97.192L141.407 96.8397ZM141.356 92.569L138.371 92.2729L138.369 92.2921L138.368 92.3115L141.356 92.569ZM142.917 84.2201L145.808 85.0222L145.814 84.9976L145.821 84.9729L142.917 84.2201ZM145.146 76.0839L148.097 76.6235L148.102 76.5954L148.107 76.5673L145.146 76.0839ZM145.181 67.7097L142.213 68.1456L142.215 68.1568L142.217 68.168L145.181 67.7097ZM140.588 60.3029C141.384 62.8772 142.012 65.5006 142.468 68.1564L148.381 67.1414C147.881 64.2293 147.193 61.3528 146.32 58.5301L140.588 60.3029ZM142.468 68.1596C142.898 70.6483 142.93 73.1894 142.563 75.6881L148.499 76.5608C148.959 73.4335 148.919 70.253 148.381 67.1382L142.468 68.1596ZM142.587 75.5461C142.335 76.8309 142.012 78.1008 141.62 79.3501L147.345 81.1464C147.803 79.687 148.18 78.2036 148.475 76.7028L142.587 75.5461ZM141.6 79.4169C141.209 80.7724 140.814 82.1582 140.454 83.5478L146.261 85.0544C146.6 83.7488 146.975 82.4294 147.365 81.0795L141.6 79.4169ZM140.464 83.5106C139.679 86.3842 139.139 89.3193 138.852 92.2843L144.824 92.8637C145.079 90.2372 145.556 87.6372 146.252 85.0916L140.464 83.5106ZM138.85 92.2982C138.704 93.8844 138.714 95.4812 138.879 97.0655L144.847 96.4416C144.722 95.2479 144.715 94.0449 144.825 92.8498L138.85 92.2982ZM138.881 97.0789C139.045 98.588 139.307 100.066 139.553 101.446L145.46 100.39C145.21 98.993 144.985 97.7054 144.845 96.4282L138.881 97.0789ZM139.555 101.457C140.083 104.343 140.628 106.905 140.86 109.549L146.837 109.025C146.573 106.016 145.943 103.035 145.458 100.378L139.555 101.457ZM140.864 109.591C140.988 110.805 140.988 112.029 140.864 113.243L146.833 113.852C146.998 112.233 146.998 110.602 146.833 108.983L140.864 109.591ZM140.867 113.215C140.81 113.727 140.702 114.232 140.543 114.723L146.253 116.567C146.535 115.693 146.729 114.793 146.83 113.88L140.867 113.215ZM140.57 114.643C140.409 115.099 140.195 115.534 139.933 115.941L144.978 119.189C145.491 118.393 145.91 117.539 146.226 116.647L140.57 114.643ZM139.872 116.04C139.078 117.386 138.39 118.79 137.813 120.242L143.39 122.457C143.852 121.293 144.403 120.168 145.039 119.09L139.872 116.04ZM137.808 120.256C137.471 121.117 137.231 122.014 137.093 122.929L143.026 123.823C143.097 123.351 143.221 122.888 143.395 122.443L137.808 120.256ZM137.111 122.822C136.853 124.198 137.08 125.622 137.755 126.848L143.012 123.956C143.008 123.948 143.006 123.939 143.008 123.93L137.111 122.822ZM142.965 123.874C142.953 123.854 142.949 123.831 142.952 123.808L137.015 122.943C136.814 124.324 137.092 125.731 137.802 126.931L142.965 123.874ZM142.96 123.755C143.021 123.275 143.136 122.803 143.304 122.349L137.676 120.269C137.351 121.15 137.126 122.065 137.008 122.997L142.96 123.755ZM143.302 122.354C143.74 121.176 144.271 120.035 144.89 118.94L139.667 115.987C138.892 117.358 138.227 118.787 137.678 120.263L143.302 122.354ZM144.837 119.03C145.319 118.243 145.711 117.403 146.004 116.528L140.316 114.62C140.166 115.067 139.966 115.495 139.72 115.897L144.837 119.03ZM146.028 116.456C146.29 115.602 146.465 114.725 146.551 113.837L140.579 113.258C140.532 113.745 140.436 114.225 140.292 114.693L146.028 116.456ZM146.555 113.797C146.688 112.201 146.659 110.595 146.468 109.005L140.511 109.721C140.653 110.908 140.675 112.106 140.576 113.298L146.555 113.797ZM146.471 109.033C146.146 106.094 145.536 103.156 145.029 100.476L139.133 101.592C139.669 104.424 140.215 107.049 140.507 109.693L146.471 109.033ZM145.03 100.485C144.773 99.1032 144.541 97.7942 144.386 96.4873L138.428 97.192C138.608 98.712 138.872 100.189 139.132 101.583L145.03 100.485ZM144.389 96.5113C144.254 95.2874 144.24 94.0532 144.345 92.8265L138.368 92.3115C138.228 93.9283 138.248 95.5549 138.425 97.168L144.389 96.5113ZM144.342 92.865C144.605 90.2136 145.095 87.5896 145.808 85.0222L140.026 83.4179C139.222 86.3167 138.668 89.2793 138.371 92.2729L144.342 92.865ZM145.821 84.9729C146.162 83.6552 146.545 82.34 146.942 80.9751L141.181 79.2984C140.788 80.649 140.38 82.0493 140.013 83.4672L145.821 84.9729ZM146.942 80.9751C147.296 79.7585 147.812 78.1806 148.097 76.6235L142.195 75.5444C141.983 76.7026 141.617 77.7997 141.181 79.2984L146.942 80.9751ZM148.107 76.5673C148.61 73.4834 148.623 70.3394 148.146 67.2514L142.217 68.168C142.597 70.6317 142.587 73.1401 142.185 75.6005L148.107 76.5673ZM148.149 67.2737C147.721 64.3596 147.12 61.4736 146.349 58.631L140.558 60.202C141.267 62.8147 141.82 65.4672 142.213 68.1456L148.149 67.2737Z" fill="black" mask="url(#path-39-inside-5_2_48656)"/>
<path d="M155.683 41.6144C154.774 45.075 153.053 48.269 150.662 50.9309C147.516 54.5835 144.213 56.6657 144.269 57.0355C144.441 58.0842 145.576 59.6344 145.52 59.9891C145.465 60.3437 144.624 60.754 143.894 60.7996C143.165 60.8452 142.278 60.5514 142.172 60.2069C142.065 59.8624 142.997 58.1805 143.033 57.1115C143.033 56.3617 128.437 50.3787 128.534 36.6648C128.579 29.5723 132.885 26.4617 136.584 25.0888C137.602 24.7175 138.652 24.4378 139.72 24.2529C140.313 24.1477 140.912 24.0733 141.513 24.03C143.509 23.9033 154.472 23.6804 156.007 34.8866C156.324 37.1296 156.214 39.4123 155.683 41.6144Z" fill="#85E0A3"/>
<path d="M128.534 36.6649C128.579 29.5724 132.885 26.4618 136.584 25.0889C133.412 28.1285 129.532 34.0204 133.134 43.0684C136.411 51.2856 144.593 53.2715 150.662 50.931C147.516 54.5836 144.213 56.6658 144.269 57.0356C144.441 58.0843 145.576 59.6345 145.52 59.9891C145.464 60.3437 144.624 60.7541 143.894 60.7997C143.164 60.8453 142.278 60.5514 142.172 60.207C142.065 59.8625 142.997 58.1805 143.033 57.1116C143.053 56.3618 128.442 50.3788 128.534 36.6649Z" fill="#53AD71"/>
<path d="M151.834 30.4334C152.801 32.2571 152.28 34.4305 150.663 35.2917C149.047 36.153 146.955 35.3677 145.982 33.5439C145.01 31.7201 145.537 29.5468 147.153 28.6856C148.769 27.8243 150.861 28.6096 151.834 30.4334Z" fill="#E8EFFD"/>
</g>
</svg>
