<svg width="65" height="66" viewBox="0 0 65 66" fill="none" xmlns="http://www.w3.org/2000/svg">
<g clip-path="url(#clip0_312_1091)">
<path d="M45.9093 24.618C45.6818 24.849 45.3763 24.981 45.0578 24.981H14.8653C13.7993 24.981 13.2597 23.661 14.0008 22.8756L18.9538 17.6682C19.1813 17.4306 19.4933 17.292 19.8183 17.292H50.1213C51.1938 17.292 51.7333 18.6252 50.9728 19.4106L45.9093 24.618ZM45.9093 47.8896C45.6818 48.114 45.3763 48.246 45.0578 48.246H14.8653C13.7993 48.246 13.2597 46.959 14.0008 46.1934L18.9538 41.1114C19.1813 40.8804 19.4933 40.7484 19.8183 40.7484H50.1213C51.1938 40.7484 51.7333 42.0486 50.9728 42.8142L45.9093 47.8896ZM45.0578 29.0202C45.3763 29.0202 45.6818 29.1456 45.9093 29.3766L50.9728 34.4586C51.7333 35.2176 51.1938 36.5244 50.1213 36.5244H19.8183C19.4933 36.5244 19.1813 36.3924 18.9538 36.1614L14.0008 31.0794C13.2532 30.3138 13.7928 29.0268 14.8653 29.0268L45.0578 29.0202Z" fill="#00FFAD"/>
<path d="M32.5 0C50.4465 0 65 14.7774 65 33C65 51.2226 50.4465 66 32.5 66C14.5535 66 0 51.2226 0 33C0 14.7774 14.5535 0 32.5 0Z" fill="black"/>
<path fill-rule="evenodd" clip-rule="evenodd" d="M15.0284 29.8515H45.1039C45.4809 29.8515 45.8384 30.0033 46.0984 30.2739L50.8564 35.1381C51.7339 36.0357 51.1099 37.5669 49.8619 37.5669H19.7864C19.4094 37.5669 19.0519 37.4151 18.7919 37.1445L14.0339 32.2803C13.1499 31.3827 13.7804 29.8515 15.0284 29.8515ZM14.0339 23.4033L18.7919 18.5391C19.0584 18.2685 19.4159 18.1167 19.7864 18.1167H49.8554C51.1034 18.1167 51.7339 19.6479 50.8499 20.5455L46.0984 25.4097C45.8319 25.6803 45.4744 25.8321 45.1039 25.8321H15.0284C13.7804 25.8321 13.1499 24.3009 14.0339 23.4033ZM50.8499 44.0151L46.0919 48.8793C45.8254 49.1499 45.4679 49.3017 45.0974 49.3017H15.0284C13.7804 49.3017 13.1499 47.7705 14.0339 46.8729L18.7919 42.0087C19.0584 41.7381 19.4159 41.5863 19.7864 41.5863H49.8554C51.1034 41.5863 51.7339 43.1175 50.8499 44.0151Z" fill="url(#paint0_linear_312_1091)"/>
</g>
<defs>
<linearGradient id="paint0_linear_312_1091" x1="15.7642" y1="50.6435" x2="49.6288" y2="17.2919" gradientUnits="userSpaceOnUse">
<stop stop-color="#CB4EE8"/>
<stop offset="1" stop-color="#10F4B1"/>
</linearGradient>
<clipPath id="clip0_312_1091">
<rect width="65" height="66" fill="white"/>
</clipPath>
</defs>
</svg>
