<svg fill="none" height="60" viewBox="0 0 67 60" width="67" xmlns="http://www.w3.org/2000/svg"><g stroke="#222c3c"><path d="m37.4989 34.07-.0117.0085-.0122.0078c-4.6437 2.9733-6.9691 5.1722-8.1289 6.6015-.5789.7134-.8634 1.2302-1.0022 1.5513-.0426.0985-.0715.1787-.091.2404 3.4502 4.5283 10.7105 5.5441 16.0241 1.6904 2.6706-1.9369 4.2608-4.8814 4.8968-7.8325.6032-2.799.3333-5.5297-.6103-7.3503-.1637.039-.381.0931-.6448.1641-.6408.1726-1.5552.4448-2.6426.8421-2.1768.7955-5.0352 2.088-7.7772 4.0767z" fill="#fff"/><path d="m36.6963 34.6524-.0234.017-.0252.0141c-2.3725 1.3336-3.351 2.5525-3.7522 3.3784-.2007.4132-.2618.7376-.2771.9445-.0059.0804-.005.1441-.0023.1895 1.7338 2.3583 3.8943 4.178 5.937 5.1698 2.0982 1.0188 3.9294 1.106 5.1002.2568.5747-.4168.9694-1.0866 1.1852-1.9689.2161-.8834.2438-1.9475.1079-3.0911-.2623-2.2066-1.1226-4.6181-2.2625-6.425-.0941-.0058-.215-.0117-.3586-.0151-.3798-.009-.9159-.0008-1.5357.0682-1.247.1387-2.7933.5189-4.0933 1.4618z" fill="#fff"/><path d="m40.33 16.0952c.1327.247.1425.6471-.1427 1.2581-.2804.6007-.8066 1.3128-1.5632 2.09-1.5089 1.5499-3.8521 3.2751-6.6743 4.7918s-5.554 2.5188-7.6792 2.9219c-1.0656.2022-1.9499.2481-2.6056.1504-.6669-.0993-.9952-.3283-1.1279-.5752s-.1425-.647.1427-1.258c.2804-.6008.8066-1.3129 1.5632-2.0901 1.5089-1.5498 3.8521-3.2751 6.6743-4.7918s5.554-2.5188 7.6792-2.9219c1.0656-.2021 1.9499-.2481 2.6056-.1504.6669.0993.9952.3283 1.1279.5752z" fill="#fff"/><path d="m54.8277 14.9971c.0319-.0142.0624-.0278.0915-.0408.5173 1.2362.6293 2.8808.3084 4.8032-.3569 2.1387-1.242 4.5709-2.625 7.0584-2.7653 4.9739-7.4904 10.1139-13.8246 13.5195-8.2157 4.1701-14.9329 5.3678-19.9354 4.8583-4.7702-.4859-7.9537-2.5157-9.46604-4.9795.01564-.0116.03179-.0236.04845-.036.26429-.1964.65689-.4853 1.16849-.8537 1.0233-.737 2.5223-1.7922 4.4226-3.0632 3.8009-2.5421 9.2048-5.9457 15.6148-9.3905 6.4174-3.4488 12.601-6.4774 17.181-8.644 2.2897-1.0831 4.1781-1.9506 5.4936-2.5471.6578-.2983 1.1723-.5288 1.5222-.6846z" fill="#e5e5e5"/><path d="m54.59 15.0109c.3938.7329.313 1.7938-.3964 3.1976-.7015 1.3882-1.9661 3.0015-3.7187 4.7367-3.5004 3.4657-8.8631 7.3358-15.2603 10.7738-6.3971 3.4379-12.5838 5.7746-17.4057 6.7814-2.4143.5041-4.4575.6685-6.0024.4875-1.5621-.183-2.49146-.701-2.88533-1.4339-.39386-.7329-.31306-1.7938.39632-3.1976.70151-1.3882 1.96621-3.0015 3.71881-4.7368 3.5004-3.4657 8.863-7.3358 15.2602-10.7737 6.3971-3.4379 12.5839-5.7747 17.4057-6.7814 2.4143-.5041 4.4576-.6686 6.0024-.4876 1.5621.1831 2.4915.7011 2.8854 1.434z" fill="#222c3c"/><path d="m30.9669 22.2436-.0158.0068-.0154.008c-4.1007 2.1345-6.6918 2.8112-8.228 2.969-.7662.0787-1.2658.0278-1.5582-.0326-.0908-.0187-.162-.0385-.2153-.0558-2.2183-5.3396-.1176-11.7317 4.8358-13.8902 2.4906-1.0853 5.3562-.7821 7.8878.3098 2.4076 1.0384 4.4389 2.7591 5.4905 4.5454-.0918.1087-.2135.2494-.3638.4162-.3807.4224-.9444 1.0115-1.6716 1.6722-1.4565 1.3232-3.5572 2.923-6.146 4.0512z" fill="#fff"/><path d="m28.1605 18.7079c-.1043 1.3932-.5718 2.6038-1.217 3.436-.648.8359-1.4312 1.2438-2.1887 1.1871-.7576-.0568-1.4713-.5768-1.9875-1.4999-.514-.919-.796-2.1857-.6916-3.579.1043-1.3932.5718-2.6038 1.217-3.436.648-.8359 1.4312-1.2438 2.1888-1.1871.7575.0567 1.4712.5768 1.9874 1.4999.514.919.796 2.1857.6916 3.579z" fill="#222c3c"/></g><ellipse cx="16.3689" cy="36.0158" fill="#fff" rx="1.03395" ry="1.56205" transform="matrix(.99720661 .0746926 -.0746926 .99720661 2.735838 -1.122029)"/><ellipse cx="46.7906" cy="17.4474" fill="#fff" rx="1.03395" ry="1.56204" transform="matrix(.20751048 -.97823279 .97823279 .20751048 20.013441 59.598981)"/><ellipse cx="29.2583" cy="32.1909" fill="#fff" rx="1.03395" ry="1.37737" transform="matrix(.95402296 -.29973355 .29973355 .95402296 -8.303482 10.249736)"/><ellipse cx="39.8942" cy="25.7373" fill="#fff" rx="1.03395" ry="1.05881" transform="matrix(.95402296 -.29973355 .29973355 .95402296 -5.880115 13.140955)"/></svg>