<svg width="35" height="35" viewBox="0 0 35 35" fill="none" xmlns="http://www.w3.org/2000/svg">
<g clip-path="url(#clip0_1666_394)">
<path d="M17.5004 35C27.1653 35 35.0004 27.165 35.0004 17.5C35.0004 7.83502 27.1653 0 17.5004 0C7.83538 0 0.000366211 7.83502 0.000366211 17.5C0.000366211 27.165 7.83538 35 17.5004 35Z" fill="#0088CC"/>
<path fill-rule="evenodd" clip-rule="evenodd" d="M11.8469 10H24.1735C24.6446 10 25.0372 10.0742 25.5082 10.2969C26.0578 10.5197 26.3719 10.8908 26.5289 11.1878C26.5289 11.1878 26.5289 11.262 26.6074 11.262C26.843 11.6332 27 12.0786 27 12.5983C27 13.0437 26.9215 13.4891 26.6074 13.9345L18.8346 26.5546C18.6776 26.8515 18.3635 27 17.971 27C17.6569 27 17.3428 26.8515 17.1073 26.5546L9.4915 13.9345C9.33448 13.6376 9.02042 13.2664 9.02042 12.6725C8.94191 12.1528 9.09894 11.7074 9.33448 11.262C9.57002 10.8166 9.96258 10.4454 10.5122 10.2969C10.9833 10 11.5329 10 11.8469 10ZM17.0288 11.7817H11.8469C11.5329 11.7817 11.3758 11.7817 11.2973 11.8559C11.1403 11.9301 11.0618 12.0044 10.9833 12.1528C10.9047 12.2271 10.9047 12.3755 10.9047 12.524C10.9047 12.5983 10.9833 12.6725 11.1403 12.9694L17.0288 22.6201V11.7817ZM18.9131 11.7817V22.6943L24.8801 12.9694C24.9587 12.821 24.9587 12.6725 24.9587 12.524C24.9587 12.3755 24.9587 12.2271 24.8801 12.1528C24.8016 12.0786 24.8016 12.0044 24.7231 12.0044L24.6446 11.9301C24.4876 11.8559 24.3305 11.8559 24.095 11.8559H18.9131V11.7817Z" fill="white"/>
</g>
<defs>
<clipPath id="clip0_1666_394">
<rect width="35" height="35" fill="white"/>
</clipPath>
</defs>
</svg>
