<svg width="28" height="28" viewBox="0 0 28 28" fill="none" xmlns="http://www.w3.org/2000/svg">
<circle cx="14" cy="14" r="14" fill="url(#paint0_linear_655_23504)"/>
<path fill-rule="evenodd" clip-rule="evenodd" d="M14.1666 7.11914C17.5882 7.11914 20.362 9.91235 20.362 13.3579C20.362 16.8036 17.5882 19.5968 14.1666 19.5968C10.745 19.5968 7.97119 16.8036 7.97119 13.3579C7.97119 9.91235 10.745 7.11914 14.1666 7.11914Z" fill="white" fill-opacity="0.5"/>
<path fill-rule="evenodd" clip-rule="evenodd" d="M14.3028 4.50549C14.2179 4.42616 14.1741 4.42466 14.1668 4.42466C14.1594 4.42466 14.1157 4.42616 14.0309 4.50549C13.9438 4.58691 13.8398 4.7274 13.7277 4.94416C13.5039 5.37683 13.2897 6.03081 13.1051 6.87466C12.8975 7.8236 12.7334 8.98348 12.6299 10.2819C13.1298 10.5277 13.6438 10.7949 14.1667 11.0819C14.6896 10.7949 15.2037 10.5276 15.7036 10.2817C15.6001 8.98341 15.4361 7.82358 15.2285 6.87466C15.0439 6.03081 14.8297 5.37683 14.6059 4.94416C14.4939 4.7274 14.3897 4.58691 14.3028 4.50549ZM13.7292 11.3255C13.3452 11.1181 12.967 10.9219 12.5965 10.7376C12.5684 11.1556 12.5466 11.5865 12.5314 12.0279C12.7273 11.9087 12.926 11.7899 13.1275 11.6718C13.3289 11.5536 13.5296 11.4382 13.7292 11.3255ZM12.2267 10.0867C12.5266 6.52633 13.2822 4 14.1668 4C15.0514 4 15.8068 6.52628 16.1069 10.0866C19.2922 8.57038 21.8237 7.9719 22.2661 8.75007C22.7083 9.52824 20.9323 11.456 18.0469 13.5C20.9323 15.5441 22.7083 17.4718 22.2661 18.25C21.8237 19.0282 19.2922 18.4297 16.1069 16.9134C15.8068 20.4738 15.0514 23 14.1668 23C13.2822 23 12.5266 20.4737 12.2267 16.9133C9.04124 18.4296 6.50959 19.0282 6.06728 18.25C5.62499 17.4718 7.40103 15.5441 10.2864 13.5C7.40103 11.456 5.62499 9.52824 6.06728 8.75007C6.50959 7.97188 9.04124 8.57041 12.2267 10.0867ZM10.6546 13.2427C9.5993 12.5025 8.69236 11.7782 7.98707 11.121C7.35991 10.5367 6.90943 10.0213 6.65244 9.60807C6.52368 9.40105 6.45595 9.23928 6.43007 9.12205C6.40486 9.00788 6.42547 8.9688 6.42904 8.9625C6.43265 8.95616 6.45577 8.9184 6.56584 8.88345C6.67884 8.84756 6.85071 8.82626 7.09163 8.83602C7.57247 8.8555 8.23719 8.99408 9.04897 9.25362C9.96183 9.54547 11.0327 9.98111 12.1915 10.5393C12.1511 11.1018 12.122 11.6875 12.1052 12.2909C11.5991 12.6074 11.1142 12.9259 10.6546 13.2427ZM10.6546 13.7573C9.5993 14.4975 8.69236 15.2218 7.98707 15.879C7.35991 16.4634 6.90943 16.9787 6.65244 17.3919C6.52368 17.599 6.45595 17.7608 6.43007 17.878C6.40486 17.9921 6.42547 18.0313 6.42904 18.0375C6.43264 18.0439 6.45573 18.0816 6.56584 18.1166C6.67884 18.1525 6.85071 18.1738 7.09163 18.164C7.57247 18.1445 8.23719 18.006 9.04897 17.7464C9.96183 17.4545 11.0327 17.019 12.1915 16.4608C12.1511 15.8982 12.122 15.3125 12.1052 14.7092C11.5991 14.3926 11.1142 14.0741 10.6546 13.7573ZM12.0941 14.2026C11.7253 13.9685 11.3688 13.7337 11.0264 13.5C11.3688 13.2663 11.7253 13.0316 12.0941 12.7975C12.0904 13.0295 12.0885 13.2637 12.0885 13.5C12.0885 13.7363 12.0904 13.9707 12.0941 14.2026ZM12.5171 14.4674C12.51 14.1496 12.5063 13.8269 12.5063 13.5C12.5063 13.1732 12.51 12.8505 12.5171 12.5326C12.7845 12.3675 13.0578 12.203 13.3363 12.0395C13.615 11.8761 13.892 11.7179 14.1667 11.5652C14.4413 11.7179 14.7183 11.8761 14.997 12.0395C15.2757 12.203 15.5491 12.3676 15.8165 12.5328C15.8236 12.8505 15.8272 13.1732 15.8272 13.5C15.8272 13.8268 15.8236 14.1495 15.8165 14.4672C15.5491 14.6324 15.2757 14.7971 14.997 14.9605C14.7183 15.1239 14.4413 15.2821 14.1667 15.4348C13.892 15.2821 13.615 15.1239 13.3363 14.9605C13.0578 14.7971 12.7845 14.6325 12.5171 14.4674ZM12.5314 14.9721C12.5466 15.4135 12.5684 15.8444 12.5965 16.2624C12.967 16.0781 13.3452 15.8819 13.7292 15.6745C13.5296 15.5618 13.3289 15.4464 13.1275 15.3283C12.926 15.2102 12.7273 15.0913 12.5314 14.9721ZM14.1667 15.9182C13.6438 16.2051 13.1298 16.4723 12.6299 16.7182C12.7334 18.0166 12.8975 19.1765 13.1051 20.1254C13.2897 20.9692 13.5039 21.6232 13.7277 22.0559C13.8398 22.2726 13.9438 22.4131 14.0309 22.4946C14.1157 22.5738 14.1594 22.5754 14.1668 22.5754C14.1741 22.5754 14.2179 22.5738 14.3028 22.4946C14.3897 22.4131 14.4939 22.2726 14.6059 22.0559C14.8297 21.6232 15.0439 20.9692 15.2285 20.1254C15.4361 19.1765 15.6001 18.0166 15.7036 16.7183C15.2037 16.4724 14.6896 16.2052 14.1667 15.9182ZM16.1421 16.4609C17.3008 17.019 18.3716 17.4546 19.2844 17.7464C20.0962 18.006 20.7608 18.1445 21.2417 18.164C21.4826 18.1738 21.6544 18.1525 21.7675 18.1166C21.8776 18.0816 21.9007 18.0439 21.9043 18.0375C21.9078 18.0313 21.9284 17.9922 21.9032 17.878C21.8774 17.7608 21.8096 17.599 21.6809 17.3919C21.4239 16.9787 20.9734 16.4634 20.3463 15.879C19.641 15.2218 18.734 14.4975 17.6787 13.7573C17.2192 14.074 16.7344 14.3925 16.2283 14.709C16.2116 15.3124 16.1824 15.8983 16.1421 16.4609ZM17.6787 13.2427C18.734 12.5025 19.641 11.7782 20.3463 11.121C20.9734 10.5367 21.4239 10.0213 21.6809 9.60807C21.8096 9.40105 21.8774 9.23928 21.9032 9.12205C21.9284 9.00784 21.9078 8.96877 21.9043 8.96249C21.9007 8.95618 21.8776 8.91842 21.7675 8.88345C21.6544 8.84756 21.4826 8.82626 21.2417 8.83602C20.7608 8.8555 20.0962 8.99408 19.2844 9.25362C18.3716 9.54545 17.3008 9.98104 16.1421 10.5391C16.1824 11.1018 16.2116 11.6876 16.2283 12.291C16.7344 12.6075 17.2192 12.926 17.6787 13.2427ZM16.2395 12.7976C16.6082 13.0316 16.9646 13.2664 17.3069 13.5C16.9646 13.7337 16.6082 13.9684 16.2395 14.2024C16.2431 13.9705 16.245 13.7363 16.245 13.5C16.245 13.2637 16.2431 13.0296 16.2395 12.7976ZM15.8022 12.0281C15.7871 11.5865 15.7651 11.1556 15.737 10.7375C15.3665 10.9218 14.9882 11.118 14.6041 11.3255C14.8038 11.4382 15.0044 11.5536 15.2058 11.6718C15.4074 11.79 15.6062 11.9088 15.8022 12.0281ZM15.737 16.2626C15.3665 16.0782 14.9882 15.882 14.6041 15.6745C14.8038 15.5618 15.0044 15.4464 15.2058 15.3283C15.4074 15.2101 15.6062 15.0912 15.8022 14.9719C15.7871 15.4135 15.7651 15.8445 15.737 16.2626Z" fill="white"/>
<path fill-rule="evenodd" clip-rule="evenodd" d="M8.39396 10.8057C8.78279 10.8057 9.09799 11.1231 9.09799 11.5146C9.09799 11.9062 8.78279 12.2236 8.39396 12.2236C8.00514 12.2236 7.68994 11.9062 7.68994 11.5146C7.68994 11.1231 8.00514 10.8057 8.39396 10.8057Z" fill="white"/>
<path fill-rule="evenodd" clip-rule="evenodd" d="M18.8129 8.25391C19.2018 8.25391 19.5169 8.57132 19.5169 8.96287C19.5169 9.35441 19.2018 9.67182 18.8129 9.67182C18.4241 9.67182 18.1089 9.35441 18.1089 8.96287C18.1089 8.57132 18.4241 8.25391 18.8129 8.25391Z" fill="white"/>
<path fill-rule="evenodd" clip-rule="evenodd" d="M12.8994 18.7461C13.2882 18.7461 13.6034 19.0635 13.6034 19.455C13.6034 19.8465 13.2882 20.164 12.8994 20.164C12.5105 20.164 12.1953 19.8465 12.1953 19.455C12.1953 19.0635 12.5105 18.7461 12.8994 18.7461Z" fill="white"/>
<path fill-rule="evenodd" clip-rule="evenodd" d="M14.1669 12.2236C14.7891 12.2236 15.2934 12.7315 15.2934 13.3579C15.2934 13.9845 14.7891 14.4923 14.1669 14.4923C13.5448 14.4923 13.0405 13.9845 13.0405 13.3579C13.0405 12.7315 13.5448 12.2236 14.1669 12.2236Z" fill="white"/>
<defs>
<linearGradient id="paint0_linear_655_23504" x1="24.7352" y1="23.8824" x2="-2.31717" y2="17.7657" gradientUnits="userSpaceOnUse">
<stop stop-color="#80CAFF"/>
<stop offset="0.393161" stop-color="#81CFE9"/>
<stop offset="1" stop-color="#85E0A3"/>
</linearGradient>
</defs>
</svg>
