<svg width="115" height="115" viewBox="0 0 115 115" fill="none" xmlns="http://www.w3.org/2000/svg">
<circle cx="57.2002" cy="57.2" r="57.2" fill="url(#paint0_linear_66_3036)"/>
<path d="M83.6003 48.372C83.6003 52.9654 79.8614 56.6891 75.2493 56.6891H70.1309V65.0061H75.2493C79.8614 65.0061 83.6003 68.7298 83.6003 73.3232V79.5458C83.6003 81.5834 82.6702 83.5104 81.0727 84.7833L74.74 89.829C73.5458 90.7804 72.0622 91.2988 70.5329 91.2988H47.8622C45.9991 91.2988 44.2192 90.5301 42.9459 89.1755L32.6187 78.1886C31.4504 76.9458 30.8003 75.307 30.8003 73.6046V29.3232C30.8003 27.1006 32.6094 25.2988 34.8411 25.2988C37.0728 25.2988 38.8819 27.1006 38.8819 29.3232V73.0748L48.4468 83.2501H70.0604L75.5187 78.9008V73.3232C75.5187 73.175 75.3981 73.0549 75.2493 73.0549H68.784C65.0645 73.0549 62.0493 70.052 62.0493 66.3476V55.3476C62.0493 51.6433 65.0645 48.6403 68.784 48.6403H75.2493C75.3981 48.6403 75.5187 48.5202 75.5187 48.372V33.3476H67.557L55.3146 43.5448V69.0305C55.3146 71.2531 53.5054 73.0549 51.2738 73.0549C49.0421 73.0549 47.2329 71.2531 47.2329 69.0305V42.9186C47.2329 40.9322 48.117 39.0478 49.6469 37.7734L62.7475 26.8609L62.9785 26.6775C64.1507 25.7851 65.5873 25.2988 67.0682 25.2988H76.8656C80.5851 25.2988 83.6003 28.3018 83.6003 32.0061V48.372Z" fill="#222C3C"/>
<defs>
<linearGradient id="paint0_linear_66_3036" x1="8.35981" y1="-0.438281" x2="57.2002" y2="114.4" gradientUnits="userSpaceOnUse">
<stop stop-color="#85E0A3"/>
<stop offset="1" stop-color="#80CAFF"/>
</linearGradient>
</defs>
</svg>
