<svg fill="none" height="34" viewBox="0 0 34 34" width="34" xmlns="http://www.w3.org/2000/svg"><circle cx="17" cy="17" fill="#dce6ff" r="17"/><g stroke="#222c3c" stroke-linecap="round" stroke-linejoin="round" stroke-width="1.5"><path d="m26.25 10.5c-.1989 0-.3897-.079-.5303-.2197-.1407-.1406-.2197-.33139-.2197-.5303s.079-.38968.2197-.53033c.1406-.14065.3314-.21967.5303-.21967s.3897.07902.5303.21967c.1407.14065.2197.33142.2197.53033s-.079.3897-.2197.5303c-.1406.1407-.3314.2197-.5303.2197zm0 0v3.75c0 .698 0 1.047-.086 1.33-.0953.3148-.2669.6013-.4994.834s-.5188.4044-.8336.5c-.284.086-.633.086-1.331.086m-15.75 6.5c.19891 0 .38968.079.53033.2197.14065.1406.21967.3314.21967.5303s-.07902.3897-.21967.5303c-.14065.1407-.33142.2197-.53033.2197s-.38968-.079-.53033-.2197c-.14065-.1406-.21967-.3314-.21967-.5303s.07902-.3897.21967-.5303c.14065-.1407.33142-.2197.53033-.2197zm0 0v-3.75c0-.698 0-1.047.086-1.33.09535-.3148.26688-.6013.4994-.834s.51884-.4044.8336-.5c.284-.086.633-.086 1.331-.086m0-9.25c0 .19891-.079.38968-.2197.53033-.1406.14065-.33139.21967-.5303.21967s-.38968-.07902-.53033-.21967-.21967-.33142-.21967-.53033.07902-.38968.21967-.53033.33142-.21967.53033-.21967.3897.07902.5303.21967c.1407.14065.2197.33142.2197.53033zm0 0h3.75c.698 0 1.047 0 1.33.086.3148.09535.6013.26688.834.4994s.4044.51884.5.8336c.086.284.086.633.086 1.331m6.5 15.75c0-.1989.079-.3897.2197-.5303.1406-.1407.3314-.2197.5303-.2197s.3897.079.5303.2197c.1407.1406.2197.3314.2197.5303s-.079.3897-.2197.5303c-.1406.1407-.3314.2197-.5303.2197s-.3897-.079-.5303-.2197c-.1407-.1406-.2197-.3314-.2197-.5303zm0 0h-3.75c-.698 0-1.047 0-1.33-.086-.3148-.0953-.6013-.2669-.834-.4994s-.4044-.5188-.5-.8336c-.086-.284-.086-.633-.086-1.331"/><path d="m10.5488 16.9512c0-3.064 0-4.596.952-5.548s2.484-.952 5.548-.952 4.596 0 5.548.952.952 2.484.952 5.548 0 4.596-.952 5.548-2.484.952-5.548.952-4.596 0-5.548-.952-.952-2.484-.952-5.548z"/><path d="m17.4984 19.5002-1.46-4.521c-.0506-.1427-.1449-.2658-.2695-.3518s-.2731-.1305-.4245-.1272c-.1512-.0031-.2995.0416-.4239.1275-.1243.086-.2185.209-.2691.3515l-1.46 4.521m6.807-5v5m-6.27-1.5h3.232"/></g></svg>