<svg width="34" height="34" viewBox="0 0 34 34" fill="none" xmlns="http://www.w3.org/2000/svg">
<circle cx="17" cy="17" r="17" fill="#222C3C"/>
<path d="M26.25 10.5C26.0511 10.5 25.8603 10.421 25.7197 10.2803C25.579 10.1397 25.5 9.94891 25.5 9.75C25.5 9.55109 25.579 9.36032 25.7197 9.21967C25.8603 9.07902 26.0511 9 26.25 9C26.4489 9 26.6397 9.07902 26.7803 9.21967C26.921 9.36032 27 9.55109 27 9.75C27 9.94891 26.921 10.1397 26.7803 10.2803C26.6397 10.421 26.4489 10.5 26.25 10.5ZM26.25 10.5V14.25C26.25 14.948 26.25 15.297 26.164 15.58C26.0687 15.8948 25.8971 16.1813 25.6646 16.414C25.4321 16.6467 25.1458 16.8184 24.831 16.914C24.547 17 24.198 17 23.5 17M7.75 23.5C7.94891 23.5 8.13968 23.579 8.28033 23.7197C8.42098 23.8603 8.5 24.0511 8.5 24.25C8.5 24.4489 8.42098 24.6397 8.28033 24.7803C8.13968 24.921 7.94891 25 7.75 25C7.55109 25 7.36032 24.921 7.21967 24.7803C7.07902 24.6397 7 24.4489 7 24.25C7 24.0511 7.07902 23.8603 7.21967 23.7197C7.36032 23.579 7.55109 23.5 7.75 23.5ZM7.75 23.5V19.75C7.75 19.052 7.75 18.703 7.836 18.42C7.93135 18.1052 8.10288 17.8187 8.3354 17.586C8.56792 17.3533 8.85424 17.1816 9.169 17.086C9.453 17 9.802 17 10.5 17M10.5 7.75C10.5 7.94891 10.421 8.13968 10.2803 8.28033C10.1397 8.42098 9.94891 8.5 9.75 8.5C9.55109 8.5 9.36032 8.42098 9.21967 8.28033C9.07902 8.13968 9 7.94891 9 7.75C9 7.55109 9.07902 7.36032 9.21967 7.21967C9.36032 7.07902 9.55109 7 9.75 7C9.94891 7 10.1397 7.07902 10.2803 7.21967C10.421 7.36032 10.5 7.55109 10.5 7.75ZM10.5 7.75H14.25C14.948 7.75 15.297 7.75 15.58 7.836C15.8948 7.93135 16.1813 8.10288 16.414 8.3354C16.6467 8.56792 16.8184 8.85424 16.914 9.169C17 9.453 17 9.802 17 10.5M23.5 26.25C23.5 26.0511 23.579 25.8603 23.7197 25.7197C23.8603 25.579 24.0511 25.5 24.25 25.5C24.4489 25.5 24.6397 25.579 24.7803 25.7197C24.921 25.8603 25 26.0511 25 26.25C25 26.4489 24.921 26.6397 24.7803 26.7803C24.6397 26.921 24.4489 27 24.25 27C24.0511 27 23.8603 26.921 23.7197 26.7803C23.579 26.6397 23.5 26.4489 23.5 26.25ZM23.5 26.25H19.75C19.052 26.25 18.703 26.25 18.42 26.164C18.1052 26.0687 17.8187 25.8971 17.586 25.6646C17.3533 25.4321 17.1816 25.1458 17.086 24.831C17 24.547 17 24.198 17 23.5" stroke="url(#paint0_linear_1326_630)" stroke-width="1.5" stroke-linecap="round" stroke-linejoin="round"/>
<path d="M10.5488 16.9512C10.5488 13.8872 10.5488 12.3552 11.5008 11.4032C12.4528 10.4512 13.9848 10.4512 17.0488 10.4512C20.1128 10.4512 21.6448 10.4512 22.5968 11.4032C23.5488 12.3552 23.5488 13.8872 23.5488 16.9512C23.5488 20.0152 23.5488 21.5472 22.5968 22.4992C21.6448 23.4512 20.1128 23.4512 17.0488 23.4512C13.9848 23.4512 12.4528 23.4512 11.5008 22.4992C10.5488 21.5472 10.5488 20.0152 10.5488 16.9512Z" stroke="url(#paint1_linear_1326_630)" stroke-width="1.5" stroke-linecap="round" stroke-linejoin="round"/>
<path d="M17.4989 19.5002L16.0389 14.9792C15.9883 14.8365 15.8939 14.7134 15.7694 14.6274C15.6448 14.5414 15.4962 14.4969 15.3449 14.5002C15.1937 14.4971 15.0454 14.5418 14.921 14.6277C14.7966 14.7137 14.7025 14.8367 14.6519 14.9792L13.1919 19.5002M19.9989 14.5002V19.5002M13.7289 18.0002H16.9609" stroke="url(#paint2_linear_1326_630)" stroke-width="1.5" stroke-linecap="round" stroke-linejoin="round"/>
<defs>
<linearGradient id="paint0_linear_1326_630" x1="17" y1="7" x2="17" y2="27" gradientUnits="userSpaceOnUse">
<stop stop-color="#85E0A3"/>
<stop offset="1" stop-color="#80CAFF"/>
</linearGradient>
<linearGradient id="paint1_linear_1326_630" x1="17.0488" y1="10.4512" x2="17.0488" y2="23.4512" gradientUnits="userSpaceOnUse">
<stop stop-color="#85E0A3"/>
<stop offset="1" stop-color="#80CAFF"/>
</linearGradient>
<linearGradient id="paint2_linear_1326_630" x1="16.5954" y1="14.5" x2="16.5954" y2="19.5002" gradientUnits="userSpaceOnUse">
<stop stop-color="#85E0A3"/>
<stop offset="1" stop-color="#80CAFF"/>
</linearGradient>
</defs>
</svg>
