<svg width="34" height="34" viewBox="0 0 34 34" fill="none" xmlns="http://www.w3.org/2000/svg">
<circle cx="17" cy="17" r="17" fill="#6C86AD"/>
<path fill-rule="evenodd" clip-rule="evenodd" d="M18.8183 12.6367C18.5772 12.6367 18.3459 12.7325 18.1754 12.903C18.005 13.0735 17.9092 13.3047 17.9092 13.5458V20.8185C17.9092 21.0596 18.005 21.2909 18.1754 21.4614C18.3459 21.6318 18.5772 21.7276 18.8183 21.7276H22.4546C22.6957 21.7276 22.927 21.6318 23.0975 21.4614C23.2679 21.2909 23.3637 21.0596 23.3637 20.8185V13.5458C23.3637 13.3047 23.2679 13.0735 23.0975 12.903C22.927 12.7325 22.6957 12.6367 22.4546 12.6367H18.8183ZM21.5455 14.4549H19.7274V19.9094H21.5455V14.4549Z" fill="white"/>
<path d="M11.5458 12.6367C11.3047 12.6367 11.0735 12.7325 10.903 12.903C10.7325 13.0735 10.6367 13.3047 10.6367 13.5458C10.6367 13.7869 10.7325 14.0181 10.903 14.1886C11.0735 14.3591 11.3047 14.4549 11.5458 14.4549H15.1822C15.4233 14.4549 15.6545 14.3591 15.825 14.1886C15.9955 14.0181 16.0913 13.7869 16.0913 13.5458C16.0913 13.3047 15.9955 13.0735 15.825 12.903C15.6545 12.7325 15.4233 12.6367 15.1822 12.6367H11.5458ZM11.5458 16.2731C11.3047 16.2731 11.0735 16.3689 10.903 16.5393C10.7325 16.7098 10.6367 16.9411 10.6367 17.1822C10.6367 17.4233 10.7325 17.6545 10.903 17.825C11.0735 17.9955 11.3047 18.0913 11.5458 18.0913H15.1822C15.4233 18.0913 15.6545 17.9955 15.825 17.825C15.9955 17.6545 16.0913 17.4233 16.0913 17.1822C16.0913 16.9411 15.9955 16.7098 15.825 16.5393C15.6545 16.3689 15.4233 16.2731 15.1822 16.2731H11.5458ZM10.6367 20.8185C10.6367 20.5774 10.7325 20.3462 10.903 20.1757C11.0735 20.0052 11.3047 19.9094 11.5458 19.9094H15.1822C15.4233 19.9094 15.6545 20.0052 15.825 20.1757C15.9955 20.3462 16.0913 20.5774 16.0913 20.8185C16.0913 21.0596 15.9955 21.2909 15.825 21.4614C15.6545 21.6318 15.4233 21.7276 15.1822 21.7276H11.5458C11.3047 21.7276 11.0735 21.6318 10.903 21.4614C10.7325 21.2909 10.6367 21.0596 10.6367 20.8185Z" fill="white"/>
<path fill-rule="evenodd" clip-rule="evenodd" d="M9.72727 9C9.00396 9 8.31026 9.28734 7.7988 9.7988C7.28734 10.3103 7 11.004 7 11.7273V22.6364C7 23.3597 7.28734 24.0534 7.7988 24.5648C8.31026 25.0763 9.00396 25.3636 9.72727 25.3636H24.2727C24.996 25.3636 25.6897 25.0763 26.2012 24.5648C26.7127 24.0534 27 23.3597 27 22.6364V11.7273C27 11.004 26.7127 10.3103 26.2012 9.7988C25.6897 9.28734 24.996 9 24.2727 9H9.72727ZM24.2727 10.8182H9.72727C9.48617 10.8182 9.25494 10.914 9.08445 11.0844C8.91396 11.2549 8.81818 11.4862 8.81818 11.7273V22.6364C8.81818 22.8775 8.91396 23.1087 9.08445 23.2792C9.25494 23.4497 9.48617 23.5455 9.72727 23.5455H24.2727C24.5138 23.5455 24.7451 23.4497 24.9156 23.2792C25.086 23.1087 25.1818 22.8775 25.1818 22.6364V11.7273C25.1818 11.4862 25.086 11.2549 24.9156 11.0844C24.7451 10.914 24.5138 10.8182 24.2727 10.8182Z" fill="white"/>
</svg>
