<svg width="34" height="34" viewBox="0 0 34 34" fill="none" xmlns="http://www.w3.org/2000/svg">
<circle cx="17" cy="17" r="17" fill="#222C3C"/>
<path fill-rule="evenodd" clip-rule="evenodd" d="M18.8183 12.6367C18.5772 12.6367 18.3459 12.7325 18.1754 12.903C18.005 13.0735 17.9092 13.3047 17.9092 13.5458V20.8185C17.9092 21.0596 18.005 21.2909 18.1754 21.4614C18.3459 21.6318 18.5772 21.7276 18.8183 21.7276H22.4546C22.6957 21.7276 22.927 21.6318 23.0975 21.4614C23.2679 21.2909 23.3637 21.0596 23.3637 20.8185V13.5458C23.3637 13.3047 23.2679 13.0735 23.0975 12.903C22.927 12.7325 22.6957 12.6367 22.4546 12.6367H18.8183ZM21.5455 14.4549H19.7274V19.9094H21.5455V14.4549Z" fill="url(#paint0_linear_1326_661)"/>
<path d="M11.5453 12.6367C11.3042 12.6367 11.073 12.7325 10.9025 12.903C10.732 13.0735 10.6362 13.3047 10.6362 13.5458C10.6362 13.7869 10.732 14.0181 10.9025 14.1886C11.073 14.3591 11.3042 14.4549 11.5453 14.4549H15.1817C15.4228 14.4549 15.654 14.3591 15.8245 14.1886C15.995 14.0181 16.0908 13.7869 16.0908 13.5458C16.0908 13.3047 15.995 13.0735 15.8245 12.903C15.654 12.7325 15.4228 12.6367 15.1817 12.6367H11.5453ZM11.5453 16.2731C11.3042 16.2731 11.073 16.3689 10.9025 16.5393C10.732 16.7098 10.6362 16.9411 10.6362 17.1822C10.6362 17.4233 10.732 17.6545 10.9025 17.825C11.073 17.9955 11.3042 18.0913 11.5453 18.0913H15.1817C15.4228 18.0913 15.654 17.9955 15.8245 17.825C15.995 17.6545 16.0908 17.4233 16.0908 17.1822C16.0908 16.9411 15.995 16.7098 15.8245 16.5393C15.654 16.3689 15.4228 16.2731 15.1817 16.2731H11.5453ZM10.6362 20.8185C10.6362 20.5774 10.732 20.3462 10.9025 20.1757C11.073 20.0052 11.3042 19.9094 11.5453 19.9094H15.1817C15.4228 19.9094 15.654 20.0052 15.8245 20.1757C15.995 20.3462 16.0908 20.5774 16.0908 20.8185C16.0908 21.0596 15.995 21.2909 15.8245 21.4614C15.654 21.6318 15.4228 21.7276 15.1817 21.7276H11.5453C11.3042 21.7276 11.073 21.6318 10.9025 21.4614C10.732 21.2909 10.6362 21.0596 10.6362 20.8185Z" fill="url(#paint1_linear_1326_661)"/>
<path fill-rule="evenodd" clip-rule="evenodd" d="M9.72727 9C9.00396 9 8.31026 9.28734 7.7988 9.7988C7.28734 10.3103 7 11.004 7 11.7273V22.6364C7 23.3597 7.28734 24.0534 7.7988 24.5648C8.31026 25.0763 9.00396 25.3636 9.72727 25.3636H24.2727C24.996 25.3636 25.6897 25.0763 26.2012 24.5648C26.7127 24.0534 27 23.3597 27 22.6364V11.7273C27 11.004 26.7127 10.3103 26.2012 9.7988C25.6897 9.28734 24.996 9 24.2727 9H9.72727ZM24.2727 10.8182H9.72727C9.48617 10.8182 9.25494 10.914 9.08445 11.0844C8.91396 11.2549 8.81818 11.4862 8.81818 11.7273V22.6364C8.81818 22.8775 8.91396 23.1087 9.08445 23.2792C9.25494 23.4497 9.48617 23.5455 9.72727 23.5455H24.2727C24.5138 23.5455 24.7451 23.4497 24.9156 23.2792C25.086 23.1087 25.1818 22.8775 25.1818 22.6364V11.7273C25.1818 11.4862 25.086 11.2549 24.9156 11.0844C24.7451 10.914 24.5138 10.8182 24.2727 10.8182Z" fill="url(#paint2_linear_1326_661)"/>
<defs>
<linearGradient id="paint0_linear_1326_661" x1="20.6365" y1="12.6367" x2="20.6365" y2="21.7276" gradientUnits="userSpaceOnUse">
<stop stop-color="#85E0A3"/>
<stop offset="1" stop-color="#80CAFF"/>
</linearGradient>
<linearGradient id="paint1_linear_1326_661" x1="13.3635" y1="12.6367" x2="13.3635" y2="21.7276" gradientUnits="userSpaceOnUse">
<stop stop-color="#85E0A3"/>
<stop offset="1" stop-color="#80CAFF"/>
</linearGradient>
<linearGradient id="paint2_linear_1326_661" x1="17" y1="9" x2="17" y2="25.3636" gradientUnits="userSpaceOnUse">
<stop stop-color="#85E0A3"/>
<stop offset="1" stop-color="#80CAFF"/>
</linearGradient>
</defs>
</svg>
