<svg width="34" height="34" viewBox="0 0 34 34" fill="none" xmlns="http://www.w3.org/2000/svg">
<circle cx="17" cy="17" r="17" fill="#222C3C"/>
<path d="M18.1316 22.2688L22.2688 18.1316M18.1316 22.2688C17.8315 21.9687 17.4243 21.8 17 21.8C16.5757 21.8 16.1687 21.9686 15.8686 22.2686C15.5686 22.5687 15.4 22.9757 15.4 23.4C15.4 23.8243 15.5686 24.2313 15.8686 24.5314C16.1687 24.8314 16.5757 25 17 25C17.4243 25 17.8313 24.8314 18.1314 24.5314C18.4314 24.2313 18.6 23.8243 18.6 23.4C18.6 22.9757 18.4317 22.5689 18.1316 22.2688ZM22.2688 18.1316C22.5689 18.4317 22.9757 18.6 23.4 18.6C23.8243 18.6 24.2313 18.4314 24.5314 18.1314C24.8314 17.8313 25 17.4243 25 17C25 16.5757 24.8314 16.1687 24.5314 15.8686C24.2313 15.5686 23.8243 15.4 23.4 15.4C22.9757 15.4 22.5687 15.5686 22.2686 15.8686C21.9686 16.1687 21.8 16.5757 21.8 17C21.8 17.4243 21.9687 17.8315 22.2688 18.1316ZM15.8688 18.1316L11.7316 22.2688M15.8688 18.1316C16.1689 18.4317 16.5757 18.6 17 18.6C17.4243 18.6 17.8313 18.4314 18.1314 18.1314C18.4314 17.8313 18.6 17.4243 18.6 17C18.6 16.5757 18.4317 16.1689 18.1316 15.8688M15.8688 18.1316C15.5687 17.8315 15.4 17.4243 15.4 17C15.4 16.5757 15.5686 16.1687 15.8686 15.8686C16.1687 15.5686 16.5757 15.4 17 15.4C17.4243 15.4 17.8315 15.5687 18.1316 15.8688M11.7316 22.2688C11.4315 21.9687 11.0243 21.8 10.6 21.8C10.1757 21.8 9.76869 21.9686 9.46863 22.2686C9.16857 22.5687 9 22.9757 9 23.4C9 23.8243 9.16857 24.2313 9.46863 24.5314C9.76869 24.8314 10.1757 25 10.6 25C11.0243 25 11.4313 24.8314 11.7314 24.5314C12.0314 24.2313 12.2 23.8243 12.2 23.4C12.2 22.9757 12.0317 22.5689 11.7316 22.2688ZM18.1316 15.8688L22.2688 11.7316M22.2688 11.7316C22.5689 12.0317 22.9757 12.2 23.4 12.2C23.8243 12.2 24.2313 12.0314 24.5314 11.7314C24.8314 11.4313 25 11.0243 25 10.6C25 10.1757 24.8314 9.76869 24.5314 9.46863C24.2313 9.16857 23.8243 9 23.4 9C22.9757 9 22.5687 9.16857 22.2686 9.46863C21.9686 9.76869 21.8 10.1757 21.8 10.6C21.8 11.0243 21.9687 11.4315 22.2688 11.7316ZM11.7316 15.8688L15.8688 11.7316M11.7316 15.8688C11.4315 15.5687 11.0243 15.4 10.6 15.4C10.1757 15.4 9.76869 15.5686 9.46863 15.8686C9.16857 16.1687 9 16.5757 9 17C9 17.4243 9.16857 17.8313 9.46863 18.1314C9.76869 18.4314 10.1757 18.6 10.6 18.6C11.0243 18.6 11.4313 18.4314 11.7314 18.1314C12.0314 17.8313 12.2 17.4243 12.2 17C12.2 16.5757 12.0317 16.1689 11.7316 15.8688ZM15.8688 11.7316C16.1689 12.0317 16.5757 12.2 17 12.2C17.4243 12.2 17.8313 12.0314 18.1314 11.7314C18.4314 11.4313 18.6 11.0243 18.6 10.6C18.6 10.1757 18.4314 9.76869 18.1314 9.46863C17.8313 9.16857 17.4243 9 17 9C16.5757 9 16.1687 9.16857 15.8686 9.46863C15.5686 9.76869 15.4 10.1757 15.4 10.6C15.4 11.0243 15.5687 11.4315 15.8688 11.7316ZM12.2 10.6C12.2 11.0243 12.0314 11.4313 11.7314 11.7314C11.4313 12.0314 11.0243 12.2 10.6 12.2C10.1757 12.2 9.76869 12.0314 9.46863 11.7314C9.16857 11.4313 9 11.0243 9 10.6C9 10.1757 9.16857 9.76869 9.46863 9.46863C9.76869 9.16857 10.1757 9 10.6 9C11.0243 9 11.4313 9.16857 11.7314 9.46863C12.0314 9.76869 12.2 10.1757 12.2 10.6ZM25 23.4C25 23.8243 24.8314 24.2313 24.5314 24.5314C24.2313 24.8314 23.8243 25 23.4 25C22.9757 25 22.5687 24.8314 22.2686 24.5314C21.9686 24.2313 21.8 23.8243 21.8 23.4C21.8 22.9757 21.9686 22.5687 22.2686 22.2686C22.5687 21.9686 22.9757 21.8 23.4 21.8C23.8243 21.8 24.2313 21.9686 24.5314 22.2686C24.8314 22.5687 25 22.9757 25 23.4Z" stroke="url(#paint0_linear_1326_647)" stroke-width="2" stroke-linecap="round" stroke-linejoin="round"/>
<defs>
<linearGradient id="paint0_linear_1326_647" x1="17" y1="9" x2="17" y2="25" gradientUnits="userSpaceOnUse">
<stop stop-color="#85E0A3"/>
<stop offset="1" stop-color="#80CAFF"/>
</linearGradient>
</defs>
</svg>
