<svg width="16" height="16" viewBox="0 0 16 16" fill="none" xmlns="http://www.w3.org/2000/svg">
<path d="M8 0C10.1217 0 12.1566 0.842855 13.6569 2.34315C15.1571 3.84344 16 5.87827 16 8C16 10.1217 15.1571 12.1566 13.6569 13.6569C12.1566 15.1571 10.1217 16 8 16C5.87827 16 3.84344 15.1571 2.34315 13.6569C0.842855 12.1566 0 10.1217 0 8C0 5.87827 0.842855 3.84344 2.34315 2.34315C3.84344 0.842855 5.87827 0 8 0ZM9.062 4.312C9.062 4.04678 8.95664 3.79243 8.76911 3.60489C8.58157 3.41736 8.32722 3.312 8.062 3.312C7.79678 3.312 7.54243 3.41736 7.35489 3.60489C7.16736 3.79243 7.062 4.04678 7.062 4.312V7.062H4.312C4.04678 7.062 3.79243 7.16736 3.60489 7.35489C3.41736 7.54243 3.312 7.79678 3.312 8.062C3.312 8.32722 3.41736 8.58157 3.60489 8.76911C3.79243 8.95664 4.04678 9.062 4.312 9.062H7.062V11.812C7.062 12.0772 7.16736 12.3316 7.35489 12.5191C7.54243 12.7066 7.79678 12.812 8.062 12.812C8.32722 12.812 8.58157 12.7066 8.76911 12.5191C8.95664 12.3316 9.062 12.0772 9.062 11.812V9.062H11.812C12.0772 9.062 12.3316 8.95664 12.5191 8.76911C12.7066 8.58157 12.812 8.32722 12.812 8.062C12.812 7.79678 12.7066 7.54243 12.5191 7.35489C12.3316 7.16736 12.0772 7.062 11.812 7.062H9.062V4.312Z" fill="#80CAFF"/>
</svg>
