<svg width="16" height="16" viewBox="0 0 16 16" fill="none" xmlns="http://www.w3.org/2000/svg">
<path fill-rule="evenodd" clip-rule="evenodd" d="M8 16C12.4183 16 16 12.4183 16 8C16 3.58172 12.4183 0 8 0C3.58172 0 0 3.58172 0 8C0 12.4183 3.58172 16 8 16ZM7.02552 8.51127L10.9588 4.42267C11.0881 4.28853 11.2415 4.18217 11.4104 4.10964C11.5793 4.03712 11.7603 3.99987 11.943 4C12.1258 4.00013 12.3067 4.03766 12.4755 4.11043C12.6443 4.1832 12.7976 4.28979 12.9268 4.42411C13.0559 4.55844 13.1583 4.71787 13.2281 4.8933C13.2979 5.06873 13.3338 5.25673 13.3337 5.44656C13.3335 5.63639 13.2974 5.82434 13.2274 5.99967C13.1573 6.175 13.0547 6.33428 12.9254 6.46841L8.00883 11.5756C7.87975 11.71 7.72643 11.8167 7.55764 11.8895C7.38885 11.9623 7.20789 11.9999 7.02512 12C6.84234 12.0001 6.66133 11.9628 6.49244 11.8903C6.32355 11.8177 6.17008 11.7112 6.04082 11.577L3.09229 8.51416C2.95936 8.38099 2.8533 8.22164 2.78029 8.04543C2.70728 7.86922 2.66879 7.67968 2.66705 7.48785C2.66532 7.29602 2.70038 7.10575 2.77019 6.92815C2.84 6.75055 2.94316 6.58917 3.07366 6.45342C3.20415 6.31768 3.35937 6.21029 3.53024 6.13752C3.70112 6.06475 3.88423 6.02806 4.0689 6.02959C4.25357 6.03112 4.4361 6.07084 4.60584 6.14643C4.77558 6.22202 4.92912 6.33197 5.05751 6.46986L7.02552 8.51127Z" fill="#5A5DE0"/>
</svg>
