<svg width="16" height="16" viewBox="0 0 16 16" fill="none" xmlns="http://www.w3.org/2000/svg">
<path fill-rule="evenodd" clip-rule="evenodd" d="M16 8C16 10.1217 15.1571 12.1566 13.6569 13.6569C12.1566 15.1571 10.1217 16 8 16C5.87827 16 3.84344 15.1571 2.34315 13.6569C0.842855 12.1566 0 10.1217 0 8C0 5.87827 0.842855 3.84344 2.34315 2.34315C3.84344 0.842855 5.87827 0 8 0C10.1217 0 12.1566 0.842855 13.6569 2.34315C15.1571 3.84344 16 5.87827 16 8ZM6.66667 4C6.66667 3.64638 6.80714 3.30724 7.05719 3.05719C7.30724 2.80714 7.64638 2.66667 8 2.66667C8.35362 2.66667 8.69276 2.80714 8.94281 3.05719C9.19286 3.30724 9.33333 3.64638 9.33333 4V8C9.33333 8.35362 9.19286 8.69276 8.94281 8.94281C8.69276 9.19286 8.35362 9.33333 8 9.33333C7.64638 9.33333 7.30724 9.19286 7.05719 8.94281C6.80714 8.69276 6.66667 8.35362 6.66667 8V4ZM8 10.6667C7.64638 10.6667 7.30724 10.8071 7.05719 11.0572C6.80714 11.3072 6.66667 11.6464 6.66667 12C6.66667 12.3536 6.80714 12.6928 7.05719 12.9428C7.30724 13.1929 7.64638 13.3333 8 13.3333C8.35362 13.3333 8.69276 13.1929 8.94281 12.9428C9.19286 12.6928 9.33333 12.3536 9.33333 12C9.33333 11.6464 9.19286 11.3072 8.94281 11.0572C8.69276 10.8071 8.35362 10.6667 8 10.6667Z" fill="#FF2782"/>
</svg>
