<svg width="16" height="16" viewBox="0 0 16 16" fill="none" xmlns="http://www.w3.org/2000/svg">
<circle cx="8" cy="8" r="8" fill="#6C86AD"/>
<path d="M12.2988 8.19902C13.2337 7.23795 13.2337 5.68153 12.2988 4.72046C11.4715 3.86996 10.1676 3.7594 9.21618 4.45851L9.18971 4.47722C8.95144 4.65242 8.89683 4.99262 9.06726 5.23587C9.23769 5.47911 9.56863 5.53695 9.80525 5.36174L9.83172 5.34303C10.3629 4.9535 11.0893 5.01474 11.5493 5.48932C12.0705 6.02513 12.0705 6.89265 11.5493 7.42846L9.69273 9.34039C9.17151 9.87621 8.32762 9.87621 7.8064 9.34039C7.34475 8.86581 7.28518 8.11907 7.6641 7.57475L7.6823 7.54753C7.85273 7.30259 7.79648 6.96239 7.55986 6.78888C7.32324 6.61538 6.99065 6.67152 6.82188 6.91476L6.80367 6.94198C6.12195 7.91835 6.2295 9.25874 7.05684 10.1092C7.99173 11.0703 9.50575 11.0703 10.4406 10.1092L12.2988 8.19902ZM3.70117 7.80098C2.76628 8.76205 2.76628 10.3185 3.70117 11.2795C4.5285 12.13 5.83238 12.2406 6.78382 11.5415L6.81029 11.5228C7.04856 11.3476 7.10317 11.0074 6.93274 10.7641C6.76231 10.5209 6.43137 10.4631 6.19475 10.6383L6.16828 10.657C5.63713 11.0465 4.91073 10.9853 4.45073 10.5107C3.92951 9.97317 3.92951 9.10565 4.45073 8.56984L6.30727 6.65961C6.82849 6.12379 7.67238 6.12379 8.1936 6.65961C8.65525 7.13419 8.71482 7.88093 8.3359 8.42695L8.3177 8.45417C8.14727 8.69911 8.20352 9.03931 8.44014 9.21282C8.67676 9.38632 9.00935 9.33019 9.17813 9.08694L9.19633 9.05973C9.87805 8.08165 9.7705 6.74126 8.94316 5.89075C8.00827 4.92969 6.49425 4.92969 5.55936 5.89075L3.70117 7.80098Z" fill="white" stroke="white" stroke-width="0.5"/>
</svg>
