<svg width="16" height="16" viewBox="0 0 16 16" fill="none" xmlns="http://www.w3.org/2000/svg">
<path fill-rule="evenodd" clip-rule="evenodd" d="M16 8C16 10.1217 15.1571 12.1566 13.6569 13.6569C12.1566 15.1571 10.1217 16 8 16C5.87827 16 3.84344 15.1571 2.34315 13.6569C0.842855 12.1566 0 10.1217 0 8C0 5.87827 0.842855 3.84344 2.34315 2.34315C3.84344 0.842855 5.87827 0 8 0C10.1217 0 12.1566 0.842855 13.6569 2.34315C15.1571 3.84344 16 5.87827 16 8ZM4 4.66667C4 4.48986 4.07024 4.32029 4.19526 4.19526C4.32029 4.07024 4.48986 4 4.66667 4H6C6.17681 4 6.34638 4.07024 6.4714 4.19526C6.59643 4.32029 6.66667 4.48986 6.66667 4.66667V11.3333C6.66667 11.5101 6.59643 11.6797 6.4714 11.8047C6.34638 11.9298 6.17681 12 6 12H4.66667C4.48986 12 4.32029 11.9298 4.19526 11.8047C4.07024 11.6797 4 11.5101 4 11.3333V4.66667ZM10 4C9.82319 4 9.65362 4.07024 9.5286 4.19526C9.40357 4.32029 9.33333 4.48986 9.33333 4.66667V11.3333C9.33333 11.5101 9.40357 11.6797 9.5286 11.8047C9.65362 11.9298 9.82319 12 10 12H11.3333C11.5101 12 11.6797 11.9298 11.8047 11.8047C11.9298 11.6797 12 11.5101 12 11.3333V4.66667C12 4.48986 11.9298 4.32029 11.8047 4.19526C11.6797 4.07024 11.5101 4 11.3333 4H10Z" fill="#FFCD29"/>
</svg>
