<svg width="68" height="68" viewBox="0 0 68 68" fill="none" xmlns="http://www.w3.org/2000/svg">
<path fill-rule="evenodd" clip-rule="evenodd" d="M33.9999 -0.00195312C52.7776 -0.00195312 68 15.2203 68 33.998C68 52.7757 52.7776 67.998 33.9999 67.998C15.2223 67.998 0 52.7757 0 33.998C0 15.2203 15.2223 -0.00195312 33.9999 -0.00195312Z" fill="#222C3B"/>
<path d="M44.216 16.998C46.3047 16.9983 48 18.6922 48 20.7838V29.3201C48 31.8756 45.9285 33.9454 43.3759 33.9454H41.0028V37.7097H43.3759C45.9285 37.7097 47.9999 39.7796 48 42.335V45.5808C48 46.7312 47.4768 47.8191 46.5791 48.5373L43.2897 51.1688C42.6187 51.7056 41.7847 51.998 40.9257 51.998H29.1492C28.1028 51.998 27.1025 51.5647 26.3869 50.8005L21.0222 45.0694C20.3657 44.368 20 43.4429 20 42.4817V19.384C20.0001 18.0653 21.069 16.9982 22.3848 16.998C23.7007 16.9982 24.7695 18.0653 24.7696 19.384V42.091L29.5758 47.2261H40.5812L43.2304 45.1055V42.4822H40.0171C37.9285 42.4821 36.2334 40.7884 36.2331 38.6969V32.9592C36.2331 30.8675 37.9283 29.1736 40.0171 29.1734H43.2304V21.7705H39.4829L33.3065 26.9362V40.0957C33.3065 41.4146 32.2372 42.4822 30.9212 42.4822C29.6052 42.4822 28.5364 41.4146 28.5364 40.0957V26.4752C28.5365 25.3538 29.0338 24.2902 29.8934 23.5712L36.6983 17.8793L36.7034 17.8752L36.8241 17.7789L36.8287 17.7759L36.9535 17.6837C37.5878 17.2388 38.346 16.9981 39.1258 16.998H44.216Z" fill="url(#paint0_linear_66_3001)"/>
<defs>
<linearGradient id="paint0_linear_66_3001" x1="20" y1="16.998" x2="34" y2="51.998" gradientUnits="userSpaceOnUse">
<stop stop-color="#85E0A3"/>
<stop offset="1" stop-color="#80CAFF"/>
</linearGradient>
</defs>
</svg>
