<svg width="36" height="42" viewBox="0 0 36 42" fill="none" xmlns="http://www.w3.org/2000/svg">
<path fill-rule="evenodd" clip-rule="evenodd" d="M17.6404 6.73779C25.0309 6.73779 31.0224 12.7711 31.0224 20.2136C31.0224 27.6561 25.0309 33.6894 17.6404 33.6894C10.2496 33.6894 4.2583 27.6561 4.2583 20.2136C4.2583 12.7711 10.2496 6.73779 17.6404 6.73779Z" fill="#222C3C" fill-opacity="0.2"/>
<path fill-rule="evenodd" clip-rule="evenodd" d="M17.9339 1.09186C17.7507 0.920515 17.6561 0.917267 17.6404 0.917267C17.6244 0.917267 17.5298 0.920515 17.3468 1.09186C17.1587 1.26772 16.934 1.57118 16.6918 2.03939C16.2084 2.97396 15.7457 4.38654 15.347 6.20928C14.8986 8.25898 14.5442 10.7643 14.3207 13.5688C15.4004 14.0998 16.5106 14.6771 17.64 15.2969C18.7695 14.677 19.88 14.0996 20.9598 13.5686C20.7363 10.7642 20.3819 8.25892 19.9335 6.20928C19.5348 4.38654 19.0721 2.97396 18.5887 2.03939C18.3467 1.57118 18.1219 1.26772 17.9339 1.09186ZM16.6951 15.823C15.8657 15.3751 15.0486 14.9513 14.2485 14.5532C14.1878 15.4561 14.1407 16.3868 14.1078 17.3404C14.5309 17.0828 14.9602 16.8261 15.3953 16.571C15.8304 16.3158 16.264 16.0664 16.6951 15.823ZM13.4497 13.1473C14.0976 5.45687 15.7296 0 17.6404 0C19.5509 0 21.1828 5.45675 21.8308 13.147C28.7112 9.87202 34.1792 8.5793 35.1347 10.2601C36.09 11.941 32.2538 16.1049 26.0212 20.52C32.2538 24.9352 36.09 29.099 35.1347 30.7799C34.1792 32.4608 28.7112 31.1682 21.8308 27.893C21.1828 35.5834 19.5509 41.04 17.6404 41.04C15.7296 41.04 14.0976 35.5832 13.4497 27.8928C6.56907 31.168 1.10072 32.4608 0.145326 30.7799C-0.810029 29.099 3.02623 24.9352 9.25871 20.52C3.02623 16.1049 -0.810029 11.941 0.145326 10.2601C1.10072 8.57926 6.56907 9.87208 13.4497 13.1473ZM10.0539 19.9643C7.77449 18.3654 5.8155 16.8009 4.29207 15.3814C2.9374 14.1193 1.96438 13.006 1.40928 12.1134C1.13116 11.6663 0.984859 11.3169 0.928951 11.0636C0.874505 10.817 0.919016 10.7326 0.926737 10.719C0.934534 10.7053 0.984455 10.6237 1.22222 10.5482C1.4663 10.4707 1.83754 10.4247 2.35791 10.4458C3.39653 10.4879 4.83233 10.7872 6.58576 11.3478C8.55754 11.9782 10.8707 12.9192 13.3735 14.1248C13.2864 15.3399 13.2235 16.605 13.1872 17.9082C12.094 18.592 11.0466 19.28 10.0539 19.9643ZM10.0539 21.0758C7.77449 22.6747 5.8155 24.2392 4.29207 25.6587C2.9374 26.9208 1.96438 28.0341 1.40928 28.9266C1.13116 29.3737 0.984859 29.7232 0.928951 29.9764C0.874505 30.223 0.919016 30.3075 0.926737 30.321C0.934495 30.3347 0.984378 30.4163 1.22222 30.4919C1.4663 30.5694 1.83754 30.6153 2.35791 30.5942C3.39653 30.5521 4.83233 30.2529 6.58576 29.6923C8.55754 29.0618 10.8707 28.121 13.3735 26.9154C13.2864 25.7002 13.2235 24.4351 13.1872 23.1318C12.094 22.4481 11.0466 21.7601 10.0539 21.0758ZM13.1633 22.0376C12.3666 21.5319 11.5966 21.0249 10.8571 20.52C11.5966 20.0152 12.3666 19.5081 13.1633 19.0025C13.1553 19.5036 13.1512 20.0097 13.1512 20.52C13.1512 21.0304 13.1553 21.5366 13.1633 22.0376ZM14.077 22.6095C14.0616 21.9231 14.0537 21.2261 14.0537 20.52C14.0537 19.8142 14.0616 19.117 14.077 18.4305C14.6545 18.0738 15.2448 17.7184 15.8464 17.3654C16.4484 17.0124 17.0468 16.6707 17.64 16.3409C18.2331 16.6707 18.8315 17.0124 19.4335 17.3654C20.0355 17.7184 20.626 18.074 21.2036 18.4309C21.219 19.1172 21.2269 19.8142 21.2269 20.52C21.2269 21.2259 21.219 21.9229 21.2036 22.6091C20.626 22.9661 20.0355 23.3216 19.4335 23.6746C18.8315 24.0277 18.2331 24.3693 17.64 24.6992C17.0468 24.3693 16.4484 24.0277 15.8464 23.6746C15.2448 23.3216 14.6545 22.9663 14.077 22.6095ZM14.1078 23.6997C14.1407 24.6533 14.1878 25.5839 14.2485 26.4868C15.0486 26.0888 15.8657 25.6649 16.6951 25.217C16.264 24.9736 15.8304 24.7243 15.3953 24.4691C14.9602 24.2139 14.5309 23.9572 14.1078 23.6997ZM17.64 25.7432C16.5106 26.3629 15.4004 26.9402 14.3207 27.4713C14.5442 30.2758 14.8986 32.7812 15.347 34.8308C15.7457 36.6536 16.2084 38.0662 16.6918 39.0008C16.934 39.4689 17.1587 39.7724 17.3468 39.9483C17.5298 40.1195 17.6244 40.1228 17.6404 40.1228C17.6561 40.1228 17.7507 40.1195 17.9339 39.9483C18.1219 39.7724 18.3467 39.4689 18.5887 39.0008C19.0721 38.0662 19.5348 36.6536 19.9335 34.8308C20.3819 32.7812 20.7363 30.2758 20.9598 27.4715C19.88 26.9404 18.7695 26.3631 17.64 25.7432ZM21.907 26.9156C24.4096 28.121 26.7226 29.062 28.6942 29.6923C30.4477 30.2529 31.8834 30.5521 32.922 30.5942C33.4424 30.6153 33.8136 30.5694 34.0577 30.4919C34.2957 30.4163 34.3455 30.3347 34.3532 30.321C34.3609 30.3075 34.4054 30.2232 34.3509 29.9764C34.2951 29.7232 34.1488 29.3737 33.8708 28.9266C33.3155 28.0341 32.3425 26.9208 30.9879 25.6587C29.4645 24.2392 27.5054 22.6747 25.2259 21.0758C24.2335 21.7599 23.1864 22.4479 22.0932 23.1314C22.057 24.4349 21.9941 25.7004 21.907 26.9156ZM25.2259 19.9643C27.5054 18.3654 29.4645 16.8009 30.9879 15.3814C32.3425 14.1193 33.3155 13.006 33.8708 12.1134C34.1488 11.6663 34.2951 11.3169 34.3509 11.0636C34.4054 10.8169 34.3609 10.7325 34.3532 10.719C34.3455 10.7053 34.2957 10.6238 34.0577 10.5482C33.8136 10.4707 33.4424 10.4247 32.922 10.4458C31.8834 10.4879 30.4477 10.7872 28.6942 11.3478C26.7226 11.9782 24.4096 12.9191 21.907 14.1245C21.9941 15.3398 22.057 16.6051 22.0932 17.9086C23.1864 18.5922 24.2335 19.2802 25.2259 19.9643ZM22.1173 19.0029C22.9137 19.5083 23.6834 20.0154 24.4229 20.52C23.6834 21.0247 22.9137 21.5317 22.1173 22.0372C22.1252 21.5362 22.1292 21.0304 22.1292 20.52C22.1292 20.0097 22.1252 19.5038 22.1173 19.0029ZM21.1728 17.3408C21.14 16.3869 21.0927 15.456 21.032 14.553C20.2317 14.9511 19.4144 15.375 18.5849 15.823C19.0161 16.0664 19.4495 16.3158 19.8846 16.571C20.3199 16.8263 20.7494 17.083 21.1728 17.3408ZM21.032 26.4872C20.2317 26.089 19.4144 25.6651 18.5849 25.217C19.0161 24.9736 19.4495 24.7243 19.8846 24.4691C20.3199 24.2138 20.7494 23.957 21.1728 23.6993C21.14 24.6533 21.0927 25.5841 21.032 26.4872Z" fill="#222C3C"/>
<path fill-rule="evenodd" clip-rule="evenodd" d="M5.17059 14.7007C6.01046 14.7007 6.69128 15.3863 6.69128 16.232C6.69128 17.0778 6.01046 17.7634 5.17059 17.7634C4.33073 17.7634 3.6499 17.0778 3.6499 16.232C3.6499 15.3863 4.33073 14.7007 5.17059 14.7007Z" fill="#222C3C"/>
<path fill-rule="evenodd" clip-rule="evenodd" d="M27.6765 9.18799C28.5164 9.18799 29.1971 9.8736 29.1971 10.7193C29.1971 11.5651 28.5164 12.2507 27.6765 12.2507C26.8365 12.2507 26.1558 11.5651 26.1558 10.7193C26.1558 9.8736 26.8365 9.18799 27.6765 9.18799Z" fill="#222C3C"/>
<path fill-rule="evenodd" clip-rule="evenodd" d="M14.9031 31.8521C15.7429 31.8521 16.4237 32.5376 16.4237 33.3834C16.4237 34.229 15.7429 34.9147 14.9031 34.9147C14.0632 34.9147 13.3823 34.229 13.3823 33.3834C13.3823 32.5376 14.0632 31.8521 14.9031 31.8521Z" fill="#222C3C"/>
<path fill-rule="evenodd" clip-rule="evenodd" d="M17.64 17.7637C18.9839 17.7637 20.0732 18.8606 20.0732 20.2137C20.0732 21.567 18.9839 22.664 17.64 22.664C16.2963 22.664 15.207 21.567 15.207 20.2137C15.207 18.8606 16.2963 17.7637 17.64 17.7637Z" fill="#222C3C"/>
</svg>
