<svg width="26" height="26" viewBox="0 0 26 26" fill="none" xmlns="http://www.w3.org/2000/svg">
<path d="M10.1111 0H1.44444C1.06135 0 0.693954 0.152182 0.423068 0.423068C0.152182 0.693954 0 1.06135 0 1.44444V10.1111C0 10.4942 0.152182 10.8616 0.423068 11.1325C0.693954 11.4034 1.06135 11.5556 1.44444 11.5556H10.1111C10.4942 11.5556 10.8616 11.4034 11.1325 11.1325C11.4034 10.8616 11.5556 10.4942 11.5556 10.1111V1.44444C11.5556 1.06135 11.4034 0.693954 11.1325 0.423068C10.8616 0.152182 10.4942 0 10.1111 0ZM24.5556 0H15.8889C15.5058 0 15.1384 0.152182 14.8675 0.423068C14.5966 0.693954 14.4444 1.06135 14.4444 1.44444V10.1111C14.4444 10.4942 14.5966 10.8616 14.8675 11.1325C15.1384 11.4034 15.5058 11.5556 15.8889 11.5556H24.5556C24.9386 11.5556 25.306 11.4034 25.5769 11.1325C25.8478 10.8616 26 10.4942 26 10.1111V1.44444C26 1.06135 25.8478 0.693954 25.5769 0.423068C25.306 0.152182 24.9386 0 24.5556 0ZM10.1111 14.4444H1.44444C1.06135 14.4444 0.693954 14.5966 0.423068 14.8675C0.152182 15.1384 0 15.5058 0 15.8889V24.5556C0 24.9386 0.152182 25.306 0.423068 25.5769C0.693954 25.8478 1.06135 26 1.44444 26H10.1111C10.4942 26 10.8616 25.8478 11.1325 25.5769C11.4034 25.306 11.5556 24.9386 11.5556 24.5556V15.8889C11.5556 15.5058 11.4034 15.1384 11.1325 14.8675C10.8616 14.5966 10.4942 14.4444 10.1111 14.4444ZM21.6667 15.8889H18.7778V18.7778H15.8889V21.6667H18.7778V24.5556H21.6667V21.6667H24.5556V18.7778H21.6667V15.8889Z" fill="#222C3C"/>
</svg>
