<svg width="33" height="35" viewBox="0 0 33 35" fill="none" xmlns="http://www.w3.org/2000/svg">
<path d="M16.1849 7.5C19.6616 7.5 22.48 5.82107 22.48 3.75C22.48 1.67893 19.6616 0 16.1849 0C12.7083 0 9.88991 1.67893 9.88991 3.75C9.88991 5.82107 12.7083 7.5 16.1849 7.5ZM16.1849 35C19.6616 35 22.48 33.3211 22.48 31.25C22.48 29.1789 19.6616 27.5 16.1849 27.5C12.7083 27.5 9.88991 29.1789 9.88991 31.25C9.88991 33.3211 12.7083 35 16.1849 35ZM7.68186 12.4227C9.42926 9.40404 9.41792 6.13465 7.65651 5.12031C5.89509 4.10598 3.05061 5.73081 1.30317 8.74946C-0.444237 11.7681 -0.432896 15.0375 1.32852 16.0519C3.08993 17.0662 5.93441 15.4414 7.68186 12.4227ZM31.6947 26.2503C33.4421 23.2316 33.4317 19.9628 31.6715 18.9491C29.9113 17.9355 27.0678 19.5609 25.3203 22.5795C23.5729 25.5982 23.5833 28.867 25.3435 29.8807C27.1038 30.8943 29.9473 29.269 31.6947 26.2503ZM7.65739 29.8799C9.4188 28.8655 9.43014 25.5961 7.68274 22.5774C5.93529 19.5588 3.09082 17.934 1.3294 18.9483C-0.432015 19.9626 -0.443356 23.232 1.30405 26.2507C3.05149 29.2694 5.89597 30.8942 7.65739 29.8799ZM31.673 16.0527C33.4332 15.039 33.4436 11.7702 31.6962 8.7515C29.9488 5.73285 27.1053 4.10747 25.345 5.12112C23.5848 6.13477 23.5744 9.40361 25.3218 12.4223C27.0693 15.4409 29.9128 17.0663 31.673 16.0527Z" fill="#222C3C"/>
</svg>
