<svg width="32" height="25" viewBox="0 0 32 25" fill="none" xmlns="http://www.w3.org/2000/svg">
<path d="M5.06901 18.9282C5.25727 18.7372 5.51613 18.6259 5.79069 18.6259H30.6885C31.1435 18.6259 31.371 19.1828 31.0494 19.509L26.131 24.4977C25.9427 24.6886 25.6839 24.8 25.4093 24.8H0.511463C0.0564925 24.8 -0.170994 24.2431 0.150623 23.9168L5.06901 18.9282ZM5.06901 0.302342C5.26512 0.111389 5.52398 0 5.79069 0H30.6885C31.1435 0 31.371 0.556946 31.0494 0.883157L26.131 5.8718C25.9427 6.06275 25.6839 6.17414 25.4093 6.17414H0.511463C0.0564925 6.17414 -0.170994 5.6172 0.150623 5.29098L5.06901 0.302342ZM26.131 9.5556C25.9427 9.36464 25.6839 9.25326 25.4093 9.25326H0.511463C0.0564925 9.25326 -0.170994 9.8102 0.150623 10.1364L5.06901 15.1251C5.25727 15.316 5.51613 15.4274 5.79069 15.4274H30.6885C31.1435 15.4274 31.371 14.8705 31.0494 14.5442L26.131 9.5556Z" fill="#222C3C"/>
</svg>
