<?xml version="1.0" encoding="utf-8"?>
<svg viewBox="0 0 56 56" fill="none" xmlns="http://www.w3.org/2000/svg">
  <path d="M 46.645 3.655 L 9.234 3.655 C 2.354 3.655 -2.005 10.312 1.455 15.692 L 24.544 51.59 C 26.052 53.935 29.826 53.935 31.334 51.59 L 54.427 15.692 C 57.883 10.319 53.522 3.655 46.649 3.655 L 46.645 3.655 Z M 24.525 40.825 L 19.497 32.095 L 7.364 12.629 C 6.565 11.384 7.553 9.788 9.228 9.788 L 24.521 9.788 L 24.521 40.829 L 24.525 40.825 Z M 48.504 12.625 L 36.376 32.099 L 31.348 40.825 L 31.348 9.783 L 46.64 9.783 C 48.316 9.783 49.305 11.378 48.504 12.625 Z" style="fill: rgb(34, 44, 60);"/>
</svg>