<svg width="112" height="113" viewBox="0 0 112 113" fill="none" xmlns="http://www.w3.org/2000/svg">
<path d="M56 0.199219C76.8664 0.199219 95.0663 11.6124 104.7 28.5361H73.6406C59.0471 28.5361 51.7378 46.0501 62.0566 56.293L65.9883 60.1943C67.5892 61.7835 68.4882 63.9391 68.4883 66.1865C68.4882 70.8669 64.6655 74.6611 59.9502 74.6611H48.1582C44.9502 74.6611 42.3496 72.0797 42.3496 68.8955V30.5361C42.3494 29.4318 41.454 28.5361 40.3496 28.5361H17.542C21.975 30.1569 24.9238 34.3747 24.9238 39.0947V68.8955C24.9238 81.6325 35.3261 91.958 48.1582 91.958H59.9502C74.2896 91.958 85.915 80.4196 85.915 66.1865C85.9149 59.3517 83.1786 52.7968 78.3096 47.9639C77.5206 47.1802 78.0755 45.8333 79.1875 45.833H111.041C111.67 49.1925 112 52.6573 112 56.1992C112 87.1272 86.9279 112.199 56 112.199C25.0721 112.199 0 87.1272 0 56.1992C0 25.2713 25.0721 0.199219 56 0.199219Z" fill="#222C3C"/>
</svg>
